<svg id="SvgjsSvg1115" width="550" height="550" xmlns="http://www.w3.org/2000/svg" version="1.1" xmlns:xlink="http://www.w3.org/1999/xlink" xmlns:svgjs="http://svgjs.com/svgjs"><defs id="SvgjsDefs1116"></defs><g id="SvgjsG1117"><svg xmlns="http://www.w3.org/2000/svg" viewBox="0 0 1100 1000" width="550" height="550"><defs><linearGradient id="a" x1="270.603" x2="280.968" y1="232.786" y2="197.685" gradientTransform="rotate(6.396 435.228 573.247)" gradientUnits="userSpaceOnUse"><stop offset="0" stop-color="#12441f" class="stopColor121244 svgShape"></stop><stop offset="1" stop-color="#34a853" class="stopColor1e1c6b svgShape"></stop></linearGradient><linearGradient id="b" x1="297.839" x2="393.898" y1="280.161" y2="280.161" gradientTransform="rotate(21.346 423.45 659.157)" gradientUnits="userSpaceOnUse"><stop offset="0" stop-color="#ffffff" class="stopColorfff svgShape"></stop><stop offset="1" stop-color="#a3b3ce" class="stopColora3aace svgShape"></stop></linearGradient><linearGradient id="c" x1="608.731" x2="608.731" y1="592.117" y2="378.443" gradientUnits="userSpaceOnUse"><stop offset="0" stop-color="#fcbd06" class="stopColorfcba06 svgShape"></stop><stop offset=".096" stop-color="#fabb05" class="stopColorfab605 svgShape"></stop><stop offset=".614" stop-color="#f0b301" class="stopColorf0a501 svgShape"></stop><stop offset="1" stop-color="#edb000" class="stopColored9f00 svgShape"></stop></linearGradient><linearGradient id="d" x1="779.873" x2="854.239" y1="486.057" y2="486.057" gradientTransform="scale(-1 1) rotate(59.216 259.253 -741.241)" gradientUnits="userSpaceOnUse"><stop offset="0" stop-color="#34a853" class="stopColor1e1c6b svgShape"></stop><stop offset=".461" stop-color="#175728" class="stopColor181757 svgShape"></stop><stop offset="1" stop-color="#12441f" class="stopColor121244 svgShape"></stop></linearGradient></defs><g data-name="Secondary shapes" fill="#ea4335" class="color000 svgShape"><path fill="#e9f1ff" d="M405.5583,889.36124c0-9.35208,61.97287-16.93218,138.41852-16.93218,76.447,0,138.41864,7.5801,138.41864,16.93218S620.4238,906.292,543.97682,906.292C467.53117,906.292,405.5583,898.71333,405.5583,889.36124Z" class="colore9efff svgShape"></path><path fill="#ffce3e" d="M877.45394,330.61862c51.25737-18.91773,59.75512-69.33188,29.329-126.03135C863.93264,230.90565,835.02954,288.57379,877.45394,330.61862Z" class="colorffd03e svgShape"></path><path fill="none" stroke="#edb000" stroke-linecap="round" stroke-linejoin="round" stroke-width="2" d="M877.45394,330.61862c3.91926-22.64116,20.349-75.9965,26.46562-110.42887" class="colorStrokeed9f00 svgStroke"></path><path fill="#cedef8" d="M163.23357,330.4561c-5.44143-3.91428-9.62716-9.63642-6.96978-12.8335,2.53113-3.04553,8.54057-.21087,13.54252,3.89833-.1523-5.81375,1.422-11.17257,5.06711-11.3085,7.15095-.26634,7.59231,20.72948,3.86377,25.15107-3.959,6.57664-24.29562,8.8417-25.07047,1.70806C153.298,333.68324,157.85782,331.47581,163.23357,330.4561Z" class="colorced3f8 svgShape"></path><path fill="none" stroke="#6798e9" stroke-linecap="round" stroke-linejoin="round" stroke-width="2" d="M178.73719,335.3635c6.57235,5.12687,17.37475,30.19036,16.09756,56.36221" class="colorStroke6b67e9 svgStroke"></path><path fill="#4285f4" d="M171.27462,336.28489c.53847-1.01863,1.889-1.55333,3.14159-1.93225-1.31493-1.25164-2.42355-3.87359-.8674-5.10643,1.11064-.8799,2.73032.88513,3.89764,2.64313a8.14413,8.14413,0,0,1,.60158-2.1228c2.54645-5.43243,3.73848,3.97755,1.37228,6.18646a16.93876,16.93876,0,0,1-2.87846,1.92753C173.93416,339.32722,170.23437,338.25325,171.27462,336.28489Z" class="color6b67e9 svgShape"></path><path fill="#2e5494" d="M284.51427,585.48538c9.28076-13.27524,21.24108-53.54754-7.7966-73.88416-13.14268-9.2042-17.13406-10.84645-23.42744-9.39453-4.09977.94637-7.06984,3.82269-10.24016,1.81887-5.79762-3.66527,7.91372-25.36073-11.85528-40.68558-19.76753-15.32432-33.90775-3.83988-39.20048-8.04079-5.29409-4.20064-1.55522-14.12331-12.95478-17.69683-11.40076-3.57353-17.64189,15.03421-32.92685,12.46332-15.89582-2.67391-43.23552-1.27262-45.77323,13.81813-2.53879,15.09155,9.83856,16.55154,14.68821,25.851s-.90943,38.95188,22.57749,42.90243c23.34134,3.92543,32.56918,1.96177,38.22752,31.05171,5.65982,29.09047,33.14727,40.33516,47.0754,36.26306,13.92693-4.07144,11.046,3.82362,4.11241,8.761-6.93245,4.93707,5.1517,9.97047,15.48562,7.571C252.84122,613.88414,272.86691,602.14732,284.51427,585.48538Z" class="color362e94 svgShape"></path><path fill="none" stroke="#3e69af" stroke-linecap="round" stroke-linejoin="round" stroke-width="2" d="M289.4864 591.908C246.51279 527.26428 179.80391 486.56056 126.844 471.13591M168.59938 487.44461c-.41369-3.76923-.03842-19.84516 3.74881-28.5191M157.83311 482.46764c-5.50362 1.98112-16.99088 10.16119-19.87122 12.98633M211.64686 512.88109c-1.08015-5.62719-2.6731-17.06837 4.29372-32.65594M195.35159 502.1574c-5.34015.6032-21.03545 9.65416-27.4998 14.25665M242.20175 537.27974c-7.76532 1.50592-15.2538 7.90231-20.66085 11.75159M257.98528 552.6379c-2.41831-7.24646-1.69181-21.71132 1.26617-31.921" class="colorStroke423eaf svgStroke"></path><path fill="#4285f4" d="M872.05308,412.58292c4.45731,4.31535,62.308-3.71228,61.49595-14.87748-.63127-8.69408-9.86909-8.21927-13.20878-7.7845-5.26212.68675-17.80911,3.16657-17.70139-.80789.19381-7.19246,32.73022-9.41038,40.62219-10.43935,7.8917-1.03018,22.93949-5.17374,26.68613-13.14254,3.74425-7.96879,4.34812-11.63232-9.36227-9.06371-13.71178,2.56657-40.08658,10.99337-34.903,2.21455,5.18328-8.77937,27.17718-10.55755,39.40531-16.2042,12.22948-5.64679,33.593-20.54762,24.89588-25.68752-7.77713-4.59538-41.14653,17.05548-42.04752,10.15945-.71939-5.51638,10.544-7.91991,25.90349-16.77974,15.35964-8.8609,29.76781-17.38011,25.34343-26.99223-3.55409-7.71873-12.19042.03114-20.53274,4.70351-8.34353,4.67208-20.20795,10.73847-19.52212,5.351.68605-5.3885,43.68534-24.29065,40.72642-38.03709-1.95764-9.09458-9.84813-2.1428-19.86131,2.7466-10.01237,4.8898-13.89829,5.86437-14.1977,3.56547-.29951-2.29783,12.13707-11.08808,19.09234-15.73652,6.95823-4.64576,15.3485-13.68906,11.24187-20.322-4.106-6.63227-14.48351,1.9678-17.58129,6.03294-3.09674,4.06606-7.77863,6.62526-8.98073,5.69152s8.065-15.07772.02914-18.704c-8.03528-3.62712-15.57468,10.75754-14.4353,19.49219,1.13844,8.73315,2.37278,20.5718-.81273,20.98763-3.18671.4161-4.5066-9.69716-5.54565-17.66472-1.03985-7.96907-3.27442-10.89736-5.39885-10.62054-7.08072.9238-11.69853,12.07085-10.9394,17.89386.759,5.8222,9.26465,37.9049,4.56074,38.51885-4.705.61394-6.62674-11.75777-7.46647-18.19365-.839-6.43508-2.798-21.45155-10.68944-20.42312-7.89237,1.02951-9.5048,21.8103-7.146,33.96926,2.35708,12.15964,7.66726,31.56987,4.02525,32.04509-3.64257.4748-10.51755-14.36827-11.53685-22.18274s1.10835-22.27288-8.60544-21.00657c-9.71245,1.26751-10.12976,13.45616-8.12849,28.79887.8361,6.41144,3.067,22.25985,9.57827,30.16243,7.41368,8.99924,9.63253,14.69936,7.62428,16.52615-4.00092,3.63935-9.47-5.1548-11.94675-12.3106-2.4774-7.15741-8.83334-29.85888-19.20167-24.14428-10.36668,5.71612-.59272,22.67395,2.66343,29.88549,3.255,7.21074,16.93355,31.60723,11.61661,34.638-5.31394,3.03131-9.09434-11.74823-10.75606-16.20636-1.663-4.45785-8.04737-12.58594-10.74827-9.03886C863.60492,353.14226,864.10255,404.8853,872.05308,412.58292Z" class="color6b67e9 svgShape"></path><path fill="none" stroke="#6798e9" stroke-linecap="round" stroke-linejoin="round" stroke-width="2" d="M825.63192 212.6106c6.59719-23.77705 20.41371-70.10163 65.07819-109.4731M867.38908 127.40344c2.668-.68741 10.95173-1.10768 20.07078 2.825M871.86007 122.08532c-.05075-5.41124-.64844-14.92555-2.27363-19.74967M854.057 145.89366c-.01961-4.514-1.727-15.76057-3.86754-18.91062M848.186 155.6879c3.57018-1.84989 10.94075-6.93834 22.11049-2.85429M839.63487 172.63967c-.242-5.86959-.08084-14.77066-6.10252-17.87665M836.23473 180.60164c4.21786-3.02433 9.3353-6.67026 19.26654-5.09127M832.10326 191.58214c-1.53936-6.93607-4.87355-13.475-8.88925-15.5454M826.73436 208.68393c3.86056-3.77471 11.87489-9.76682 20.37221-7.75792" class="colorStroke6b67e9 svgStroke"></path><path fill="#fbbc05" d="M899.86637 100.77332a5.81962 5.81962 0 10-6.92949 4.44A5.81909 5.81909 0 00899.86637 100.77332zM874.01835 102.43437a4.45868 4.45868 0 10-5.30913 3.40188A4.459 4.459 0 00874.01835 102.43437zM894.288 132.12938a4.45818 4.45818 0 10-5.308 3.40175A4.45737 4.45737 0 00894.288 132.12938zM852.77378 125.9108a4.45868 4.45868 0 10-5.30913 3.40137A4.45875 4.45875 0 00852.77378 125.9108zM861.37454 175.75374a4.45819 4.45819 0 10-5.30915 3.40135A4.45881 4.45881 0 00861.37454 175.75374zM825.676 175.53347a4.45818 4.45818 0 10-5.308 3.40107A4.45673 4.45673 0 00825.676 175.53347zM875.59451 154.54769a5.00031 5.00031 0 10-5.95464 3.81492A5.00006 5.00006 0 00875.59451 154.54769zM837.39318 154.4678a5.00031 5.00031 0 10-5.95477 3.8149A5.0006 5.0006 0 00837.39318 154.4678zM854.35034 202.86162a4.99983 4.99983 0 10-5.95343 3.81516A4.99866 4.99866 0 00854.35034 202.86162z" class="colorfbba05 svgShape"></path><path fill="#3e69af" d="M889.09472 418.78846c14.36842 31.435 46.5732 34.40067 80.89571 12.51287C951.35287 405.52074 913.60084 390.02625 889.09472 418.78846zM302.89864 545.43416C356.36237 477.308 325.9367 402.20159 237.7537 350.96773 201.79405 422.0935 210.704 523.94621 302.89864 545.43416z" class="color423eaf svgShape"></path><path fill="none" stroke="#2e5494" stroke-linecap="round" stroke-linejoin="round" stroke-width="2" d="M302.89864,545.43416c-13.52278-33.81225-35.68592-119.47688-56.04671-171.02826" class="colorStroke362e94 svgStroke"></path><path fill="#5280cc" d="M320.67229,546.14884c49.54407-4.21933,69.176-46.402,56.17229-103.50181C332.88928,455.39173,293.60108,499.01179,320.67229,546.14884Z" class="color5652cc svgShape"></path><path fill="none" stroke="#3e69af" stroke-linecap="round" stroke-linejoin="round" stroke-width="2" d="M320.67229,546.14884c8.9063-18.91868,36.20893-61.76724,49.89248-90.50245" class="colorStroke423eaf svgStroke"></path><path fill="none" stroke="#5280cc" stroke-linecap="round" stroke-linejoin="round" stroke-width="2" d="M711.21383,597.63467c13.43131,10.66527,59.43355,57.77411,58.09042,127.56723" class="colorStroke5652cc svgStroke"></path><circle cx="709.535" cy="595.54" r="4.749" fill="#fcbd06" class="colorfcba06 svgShape"></circle><path fill="#5280cc" d="M744.61869 637.29612c-10.32626-12.28978-20.85867-6.98737-29.05367-3.26152C719.00881 637.55454 730.04747 650.76867 744.61869 637.29612zM744.61869 637.29612c-7.20643-14.34343 1.82773-21.92178 8.4898-27.97636C754.98027 613.8746 762.75418 629.238 744.61869 637.29612zM757.62841 662.99814c-13.4-11.19137-23.66746-3.50584-31.73229 2.046C730.25458 668.15684 744.59384 680.20231 757.62841 662.99814zM757.62841 662.99814c-1.269-17.4125 10.96369-21.26579 20.17838-24.57553C777.79121 643.77847 779.20581 662.45216 757.62841 662.99814zM767.38223 697.7675c-12.56206-14.63866-25.152-8.13547-34.95272-3.55593C736.61162 698.39824 750.04131 714.13893 767.38223 697.7675zM767.38223 697.7675c4.80127-18.68268 18.969-18.41137 29.78471-18.63339C795.26507 684.73779 790.17205 704.79235 767.38223 697.7675z" class="color5652cc svgShape"></path><path fill="#3e69af" d="M722.81377,820.61107c-18.13308-11.91035-62.819-99.70719-27.68825-116.72265,33.297-16.12712,43.85914,52.54705,45.84147,61.46758,6.93821-33.69969,16.02006-66.40815,38.24068-60.461s0,53.52283,0,53.52283c20.2383-25.77025,70.67273-65.432,93.62939-53.52645s-46.62972,54.60539-46.62972,54.60539c31.621-17.93751,126.12347-42.09077,31.745,3.50274,43.20947-13.97674,127.477-20.835,33.805,8.32044,56.38047-4.896,84.99574,2.78054,85.98711,10.70972.991,7.92944-15.54645,19.14862-88.4069,20.99072,35.98664,5.94712,54.03752,14.36694,44.76414,17.59072Z" class="color423eaf svgShape"></path><path fill="#fcbd06" d="M843.55253 778.23488a2.92553 2.92553 0 112.92559 2.92548A2.92557 2.92557 0 01843.55253 778.23488zM743.07234 795.46121a4.50527 4.50527 0 114.50542 4.50513A4.50538 4.50538 0 01743.07234 795.46121zM801.71989 762.09058a3.84545 3.84545 0 113.84538 3.84539A3.84557 3.84557 0 01801.71989 762.09058z" class="colorfcba06 svgShape"></path><path fill="#4285f4" d="M638.55352 874.81634c0-1.84291 5.57977-1.48872 11.18573-2.5643 4.26148-.82106 7.69681-3.31069 13.61491-3.31069 13.69886 0 24.8008 2.63 24.8008 5.875 0 1.78771-5.06832 1.68536-10.3792 2.765-4.33495.87881-8.26468 3.11378-14.4216 3.11378C649.65664 880.69509 638.55352 878.0639 638.55352 874.81634zM692.80594 865.32524c0-1.89139 6.77085-.62831 14.44134-2.80432 8.82746-2.50131 14.44658.91293 14.44658 2.80432s-6.46784 3.422-14.44658 3.422C699.27378 868.74727 692.80594 867.21664 692.80594 865.32524zM663.79753 857.34516c0-.87881 2.08548-1.02709 4.90431-1.498 1.7916-.299 3.73551-1.10835 6.09647-1.10835 6.07688 0 11.00214 1.16745 11.00214 2.60634 0 1.0506-2.677 1.80611-6.372.94691-2.02921-.47345-1.84815 1.65931-4.63018 1.65931C668.72413 859.95138 663.79753 858.78527 663.79753 857.34516z" class="color6b67e9 svgShape"></path><polygon fill="#f6f8fb" points="782.585 173.957 611.146 219.207 695.674 539.452 920.17 480.198 849.649 213.01 782.585 173.957" class="colorf6f6fb svgShape"></polygon><rect width="177.31" height="17.184" x="610.403" y="196.298" fill="#7dacfb" transform="rotate(-14.786 699.058 204.89)" class="color807dfb svgShape"></rect><polygon fill="#7dacfb" points="864.389 465.689 856.505 479.232 691.288 522.839 695.674 539.452 920.17 480.198 912.957 452.871 864.389 465.689" class="color807dfb svgShape"></polygon><polygon points="788.912 240.199 849.649 213.01 782.585 173.957 788.912 240.199" style="mix-blend-mode:multiply" fill="#dde7f8" class="colordde2f8 svgShape"></polygon><polygon fill="#e9eef7" points="796.59 227.015 849.649 213.01 782.585 173.957 796.59 227.015" class="colore9edf7 svgShape"></polygon><path fill="#bbcbe6" d="M683.99218 294.248a5.41651 5.41651 0 116.61937 3.85505A5.41506 5.41506 0 01683.99218 294.248zM703.1334 289.19512a5.4165 5.4165 0 116.61936 3.85438A5.41639 5.41639 0 01703.1334 289.19512zM722.27477 284.1436a5.41668 5.41668 0 116.61935 3.85372A5.41871 5.41871 0 01722.27477 284.1436zM741.41882 279.08994a5.41586 5.41586 0 116.61935 3.85586A5.41549 5.41549 0 01741.41882 279.08994zM760.56152 274.03775a5.416 5.416 0 116.6179 3.85369A5.41623 5.41623 0 01760.56152 274.03775zM779.70143 268.98543a5.41722 5.41722 0 116.622 3.8545A5.41744 5.41744 0 01779.70143 268.98543zM798.8468 263.93257a5.41595 5.41595 0 116.618 3.85439A5.4147 5.4147 0 01798.8468 263.93257z" class="colorbbc0e6 svgShape"></path><path fill="none" stroke="#7dacfb" stroke-linecap="round" stroke-width="3" d="M703.86125 319.89359a9.22085 9.22085 0 0012.60139-3.32613 9.22266 9.22266 0 0112.60555-3.32828 9.22683 9.22683 0 0012.60824-3.32884 9.222 9.222 0 0112.60421-3.32611 9.22083 9.22083 0 0012.60286-3.32613 9.22278 9.22278 0 0112.60542-3.3268 9.22905 9.22905 0 0012.60838-3.32881 9.22024 9.22024 0 0112.60407-3.32683 9.22221 9.22221 0 0012.60287-3.3261 9.21971 9.21971 0 0112.60407-3.3268M682.33115 340.51493a9.22955 9.22955 0 0012.611-3.32828 9.22139 9.22139 0 0112.60407-3.32611 9.22271 9.22271 0 0012.60287-3.3268 9.2224 9.2224 0 0112.60421-3.3268 9.22994 9.22994 0 0012.6096-3.32815 9.21932 9.21932 0 0112.60419-3.32682A9.22261 9.22261 0 00770.57 317.22586a9.21942 9.21942 0 0112.60273-3.3268 9.23136 9.23136 0 0012.61106-3.32962 9.22444 9.22444 0 0112.60692-3.3268 9.22009 9.22009 0 0012.6015-3.32535 9.21864 9.21864 0 0112.60273-3.32745M686.0191 354.4827A9.23078 9.23078 0 00698.63 351.15456a9.21988 9.21988 0 0112.60419-3.32747 9.21992 9.21992 0 0012.60152-3.3256 9.22167 9.22167 0 0112.60408-3.3268 9.22957 9.22957 0 0012.60972-3.32935 9.22393 9.22393 0 0112.60691-3.3268 9.21894 9.21894 0 0012.60137-3.32559 9.222 9.222 0 0112.60287-3.32748 9.22961 9.22961 0 0012.61092-3.32814 9.2214 9.2214 0 0112.60435-3.3268 9.22087 9.22087 0 0012.60139-3.32613 9.21963 9.21963 0 0112.60409-3.32682M689.70559 368.45126a9.23066 9.23066 0 0012.60971-3.32962 9.22156 9.22156 0 0112.60542-3.3268 9.22151 9.22151 0 0012.60287-3.32546 9.22023 9.22023 0 0112.60287-3.32747 9.23168 9.23168 0 0012.61105-3.32814 9.21906 9.21906 0 0112.60408-3.3268 9.21915 9.21915 0 0012.60005-3.32681 9.22361 9.22361 0 0112.60568-3.3268 9.22872 9.22872 0 0012.60959-3.32827 9.223 9.223 0 0112.60555-3.32748 9.21879 9.21879 0 0012.60139-3.32613 9.22081 9.22081 0 0112.60421-3.3268M693.39208 382.41754a9.23136 9.23136 0 0012.61106-3.32814 9.21955 9.21955 0 0112.60421-3.3268 9.2182 9.2182 0 0012.6-3.32682 9.224 9.224 0 0112.60558-3.32611 9.23193 9.23193 0 0012.611-3.32815 9.22327 9.22327 0 0112.60568-3.32828 9.21727 9.21727 0 0012.59992-3.32532 9.22376 9.22376 0 0112.60555-3.32682 9.23109 9.23109 0 0012.60971-3.32893 9.22139 9.22139 0 0112.60556-3.3268 9.21769 9.21769 0 0012.6-3.32532 9.22192 9.22192 0 0112.60556-3.32761M697.07872 396.38611a9.23223 9.23223 0 0012.611-3.32895 9.22134 9.22134 0 0112.60556-3.32748 9.21678 9.21678 0 0012.6-3.3268 9.22482 9.22482 0 0112.60542-3.32613 9.23038 9.23038 0 0012.60985-3.32881 9.22019 9.22019 0 0112.60408-3.3268A9.21925 9.21925 0 00785.3161 373.095a9.22457 9.22457 0 0112.60568-3.32681 9.22974 9.22974 0 0012.60959-3.32827 9.22086 9.22086 0 0112.60557-3.32683 9.21808 9.21808 0 0012.6-3.32745 9.22153 9.22153 0 0112.60421-3.32613" class="colorStroke807dfb svgStroke"></path><path fill="none" stroke="#fcbd06" stroke-linecap="round" stroke-width="3" d="M700.76667,410.35319a9.2314,9.2314,0,0,0,12.60961-3.32882,9.22015,9.22015,0,0,1,12.60419-3.3268,9.22018,9.22018,0,0,0,12.60152-3.32613,9.22312,9.22312,0,0,1,12.60542-3.32682A9.23162,9.23162,0,0,0,763.797,393.7165a9.22019,9.22019,0,0,1,12.60571-3.3268,9.21808,9.21808,0,0,0,12.6-3.32761,9.22258,9.22258,0,0,1,12.60421-3.326,9.23349,9.23349,0,0,0,12.61227-3.32828,9.21963,9.21963,0,0,1,12.60434-3.3275,9.21655,9.21655,0,0,0,12.60005-3.32678,9.22377,9.22377,0,0,1,12.6069-3.32613" class="colorStrokefcba06 svgStroke"></path><path fill="none" stroke="#7dacfb" stroke-linecap="round" stroke-width="3" d="M704.45182 424.32028a9.23129 9.23129 0 0012.61106-3.32882 9.22092 9.22092 0 0112.60408-3.3268 9.21809 9.21809 0 0012.60152-3.3268 9.22316 9.22316 0 0112.60421-3.32613 9.233 9.233 0 0012.6124-3.32828 9.21906 9.21906 0 0112.60274-3.32747 9.21969 9.21969 0 0012.60138-3.32613 9.22551 9.22551 0 0112.60692-3.326 9.23132 9.23132 0 0012.6097-3.32895 9.218 9.218 0 0112.60286-3.3268 9.22128 9.22128 0 0012.60274-3.32615 9.22187 9.22187 0 0112.60421-3.32812M708.13831 438.28669a9.232 9.232 0 0012.61241-3.32747 9.21923 9.21923 0 0112.60286-3.32763 9.21973 9.21973 0 0012.60153-3.32531 9.225 9.225 0 0112.60689-3.32747 9.23137 9.23137 0 0012.60958-3.32828 9.21849 9.21849 0 0112.60287-3.32747 9.22 9.22 0 0012.60287-3.32546 9.22359 9.22359 0 0112.60407-3.32747 9.22936 9.22936 0 0012.60972-3.32814 9.22059 9.22059 0 0112.60407-3.32681 9.21941 9.21941 0 0012.60287-3.3268 9.22017 9.22017 0 0112.60408-3.32615M711.82765 452.25659a9.23321 9.23321 0 0012.60969-3.33029 9.21893 9.21893 0 0112.60273-3.32749 9.21975 9.21975 0 0012.60287-3.32531 9.22186 9.22186 0 0112.60421-3.3268 9.23077 9.23077 0 0012.6096-3.32828 9.22072 9.22072 0 0112.60433-3.3268 9.22065 9.22065 0 0012.60259-3.32749 9.22035 9.22035 0 0112.60435-3.32559" class="colorStroke807dfb svgStroke"></path><polygon fill="#f6f8fb" points="902.259 553.41 980.084 589.357 898.466 766.064 774.591 708.849 834.939 578.191 902.259 553.41" class="colorf6f6fb svgShape"></polygon><polygon fill="#7dacfb" points="975.846 598.526 888.858 558.345 902.259 553.41 980.084 589.357 975.846 598.526" class="color807dfb svgShape"></polygon><polygon fill="#7dacfb" points="878.635 738.608 869.991 741.791 778.827 699.683 774.592 708.851 898.468 766.064 905.431 750.984 878.635 738.608" class="color807dfb svgShape"></polygon><polygon points="880.988 599.461 834.939 578.191 902.259 553.41 880.988 599.461" style="mix-blend-mode:multiply" fill="#dde7f8" class="colordde2f8 svgShape"></polygon><polygon fill="#e9eef7" points="876.117 586.227 834.939 578.191 902.259 553.41 876.117 586.227" class="colore9edf7 svgShape"></polygon><rect width="6.777" height="6.779" x="874.12" y="596.02" fill="#2e5494" transform="rotate(24.79 877.505 599.399)" class="color362e94 svgShape"></rect><rect width="6.779" height="6.779" x="891.213" y="603.917" fill="#2e5494" transform="rotate(24.761 894.603 607.306)" class="color362e94 svgShape"></rect><rect width="6.777" height="6.778" x="908.306" y="611.811" fill="#2e5494" transform="rotate(24.79 911.695 615.2)" class="color362e94 svgShape"></rect><rect width="4.016" height="93.842" x="888.421" y="581.534" fill="#cedef8" transform="rotate(-65.21 890.43 628.454)" class="colorced3f8 svgShape"></rect><rect width="4.016" height="100.299" x="880.734" y="587.251" fill="#cedef8" transform="rotate(-65.21 882.743 637.4)" class="colorced3f8 svgShape"></rect><rect width="4.014" height="100.297" x="875.98" y="597.55" fill="#cedef8" transform="rotate(-65.209 877.987 647.699)" class="colorced3f8 svgShape"></rect><rect width="4.017" height="100.297" x="871.221" y="607.848" fill="#cedef8" transform="rotate(-65.209 873.23 657.997)" class="colorced3f8 svgShape"></rect><rect width="4.014" height="100.299" x="866.465" y="618.146" fill="#cedef8" transform="rotate(-65.21 868.472 668.296)" class="colorced3f8 svgShape"></rect><rect width="4.017" height="100.301" x="861.707" y="628.444" fill="#cedef8" transform="rotate(-65.21 863.716 678.595)" class="colorced3f8 svgShape"></rect><rect width="4.018" height="85.351" x="850.165" y="643.084" fill="#cedef8" transform="rotate(-65.209 852.174 685.76)" class="colorced3f8 svgShape"></rect><path fill="#dde7f8" d="M313.67324,190.45888c-.91226-.35741-16.37734-.12384-23.16377.0368-.46835.81514-.78842,1.01124-.84349,1.96218,4.57242,4.43931,16.15236,15.3031,17.10074,15.6742l5.00061,1.94324,6.90061-17.66459Z" class="colordde2f8 svgShape"></path><path fill="#bbcbe6" d="M306.76672,208.13206l5.00061,1.94324,6.90061-17.66459-4.9947-1.95183C309.70214,193.91314,306.23739,201.8591,306.76672,208.13206Z" class="colorbbc0e6 svgShape"></path><path fill="#2e5494" d="M289.666,192.45786a4.57112,4.57112,0,0,1,.29253-.85061,4.45563,4.45563,0,0,1,.74437-1.10177,1.19738,1.19738,0,0,0-1.40022.528A1.1772,1.1772,0,0,0,289.666,192.45786Z" class="color362e94 svgShape"></path><path fill="#3e69af" d="M442.32262,251.02374c3.37153-8.628,6.98052-15.28134,8.06268-14.85839l-.00067-.00188c-.13243-.0505-.27615-.10436-.40012-.15354-20.48852-8.00557-119.98713-41.69936-128.421-44.22028-.72544-.28407-3.13944,4.16639-5.3955,9.94024-2.254,5.77265-3.49819,10.6834-2.77424,10.96613h0c7.912,3.86672,103.892,46.55306,124.38132,54.55946.126.04916.26822.1049.40132.15876v-.00067C437.09368,266.99048,438.95029,259.65307,442.32262,251.02374Z" class="color423eaf svgShape"></path><path fill="url(#a)" d="M316.168,201.72989c1.89-4.83406,3.887-8.72836,4.91143-9.70616-.61838-.19674-1.11359-.35093-1.44414-.45247-.67815-.263-2.94656,3.91455-5.0636,9.33368-2.11893,5.42034-3.28369,10.02889-2.605,10.29443h0c.28663.13848.71039.34048,1.23166.58373C313.30925,210.0687,314.43788,206.15941,316.168,201.72989Z"></path><path fill="#4285f4" d="M449.60549,234.65957h0c-1.15161-.44981-5.002,6.64554-8.60048,15.85069-3.59462,9.20381-5.57655,17.03117-4.4236,17.48166h0c17.85625,7.03894,107.15876,45.78518,115.00035,25.72216C559.41893,273.65429,467.50364,241.58972,449.60549,234.65957Z" class="color6b67e9 svgShape"></path><path d="M535.26876,291.84243c-.29052,1.12474-5.80407.79675-14.41957-.89533a319.25167,319.25167,0,0,1-33.0221-8.72108A324.27523,324.27523,0,0,1,455.769,270.45318c-8.03394-3.52892-12.744-6.46836-12.32108-7.55242.42766-1.0992,5.78514-.181,14.25962,1.875,8.46616,2.07314,20.01319,5.381,32.66938,9.36124,12.64961,3.9934,24.00457,7.9054,32.13414,11.04873C530.63872,288.33364,535.562,290.69862,535.26876,291.84243Z" style="mix-blend-mode:multiply" fill="url(#b)"></path><path fill="#ffffff" d="M534.90679,289.78113c-.301,1.12017-5.81.73644-14.40978-1.04415a319.91169,319.91169,0,0,1-32.93035-9.05888,324.78842,324.78842,0,0,1-31.93415-12.09866c-7.99848-3.611-12.679-6.59893-12.24626-7.67908.4388-1.092,5.787-.1194,14.24,2.02329,8.44776,2.15828,19.96135,5.58367,32.57362,9.69311,12.60824,4.12247,23.92116,8.15119,32.02,11.37524C530.31274,286.22385,535.213,288.63933,534.90679,289.78113Z" class="colorfff svgShape"></path><rect width="197.153" height="109.797" x="242.68" y="521.537" fill="#4285f4" transform="rotate(-15.601 341.257 576.436)" class="color6b67e9 svgShape"></rect><polygon fill="#cedef8" points="314.358 569.975 332.743 635.811 261.077 655.823 231.547 550.071 314.358 569.975" class="colorced3f8 svgShape"></polygon><polygon fill="#9cc1ff" points="231.547 550.071 341.257 576.439 421.437 497.048 231.547 550.071" class="color9f9cff svgShape"></polygon><polygon fill="#e9eef7" points="314.358 569.975 303.213 530.061 231.547 550.071 314.358 569.975" class="colore9edf7 svgShape"></polygon><polygon points="231.547 550.071 348.775 603.361 421.437 497.048 341.257 576.439 231.547 550.071" style="mix-blend-mode:multiply" fill="#cedef8" class="colorced3f8 svgShape"></polygon><path fill="#2e5494" d="M688.43687,251.5485l-.88271-3.10935-65.86191,18.691.88271,3.11a14.22913,14.22913,0,0,0,17.57218,9.80325l14.57512-4.137h0l12.40033,43.6891a4.85049,4.85049,0,1,0,9.33236-2.64879l-12.399-43.68923h0L678.63619,269.12A14.22786,14.22786,0,0,0,688.43687,251.5485Z" class="color362e94 svgShape"></path><path fill="#ffffff" d="M670.66926,318.58887a1.16371,1.16371,0,1,1,1.43755.80279A1.16336,1.16336,0,0,1,670.66926,318.58887Z" class="colorfff svgShape"></path><path fill="#e9eef7" d="M643.38825,218.19963S613.41037,226.70635,608.501,228.1c6.73139,9.04061,5.345,24.26164,15.19283,38.46163l61.85749-17.55446c-3.10209-10.92543,2.83052-22.59-7.27439-40.70976C673.36734,209.691,643.38825,218.19963,643.38825,218.19963Z" class="colore9edf7 svgShape"></path><path fill="#3e69af" d="M678.27689,208.2974c-4.90955,1.39363-34.88864,9.90223-34.88864,9.90223S613.41037,226.70635,608.501,228.1a21.003,21.003,0,0,1,1.76931,2.8935l.05.05386,2.96953-.84214c2.85671,2.226,6.97139,8.58677,7.70462,15.39363a53.60757,53.60757,0,0,0,1.157-14.01571c2.5314-.71938,10.2912-2.921,10.2912-2.921,1.52808,5.38367,3.05737,10.76734,1.87033,16.2363,1.92818-3.45493,5.989-10.25386,5.05378-19.57049,1.93344,1.07813,3.40511,5.36457,4.70754,9.95609,2.883-6.12145,2.88437-9.58619,3.72909-12.1787,1.98714,2.174,4.82558,8.55453,4.00049,14.0924,2.77292-6.04866,3.106-11.66067,2.25337-14.66955,3.48249-.98894,14.16979-4.02214,14.16979-4.02214,2.72962,4.188,3.851,9.34551,4.21042,10.61127a34.391,34.391,0,0,0,1.35227-10.30705l8.1927-2.32549A51.82816,51.82816,0,0,0,678.27689,208.2974Z" class="color423eaf svgShape"></path><path fill="#e1a700" d="M482.85845,443.563c-17.06717,26.84758-29.0307,60.63377-2.41992,117.25964C483.78655,538.44329,482.85845,443.563,482.85845,443.563Z" class="colore19100 svgShape"></path><path fill="#d0dff8" d="M588.58743,866.96212v-4.86361h13.28182a32.8315,32.8315,0,0,0,1.524,8.84048C599.94105,872.2652,594.8847,868.843,588.58743,866.96212Z" class="colorf8d8d0 svgShape"></path><path fill="#196f30" d="M588.58743,866.96212c6.29727,1.88092,11.35362,5.30308,14.80587,3.97687,1.8272,1.32621,28.76853,11.01663,31.50717,12.89366,2.80956,1.92014,2.3991,4.89893-.57177,4.89893-4.34422,0-40.11556-1.57522-40.11556-1.57522-.72408.78828-1.313,1.57522-1.313,1.57522h-8.17283C582.29084,884.50542,582.948,871.82318,588.58743,866.96212Z" class="color20196f svgShape"></path><path fill="#d0dff8" d="M457.01567,866.97527c.85785-2.54858,1.52418-4.86226,1.52418-4.86226l13.569.1233c-.61717,3.38536-.79621,6.83493-.28729,8.7145C468.36929,872.27823,463.31361,868.85351,457.01567,866.97527Z" class="colorf8d8d0 svgShape"></path><path fill="#196f30" d="M457.01567 866.97527c6.29794 1.87824 11.35362 5.303 14.80587 3.97554 1.82854 1.32742 28.76921 11.018 31.50985 12.89231 2.80567 1.92149 2.39507 4.90162-.57446 4.90162-4.34489 0-40.11354-1.57656-40.11354-1.57656-.72542.78828-1.31439 1.57656-1.31439 1.57656h-8.17349C450.71773 884.51724 451.37693 871.83365 457.01567 866.97527zM483.17986 591.54022c-9.65052 22.51974-6.6481 41.8208-5.14634 58.22687-3.30531 19.621-22.41214 212.33142-22.41214 212.33142 4.82625 0 18.65822.16265 18.65822.16265s43.22222-119.92951 49.006-139.25273c6.20082-20.73326 30.45252-102.28 29.16513-134.84567C533.64236 589.90334 483.17986 591.54022 483.17986 591.54022z" class="color20196f svgShape"></path><path fill="#2e5494" d="M569.39342,588.16276c8.36435,19.46226,55.30382,128.02377,56.33736,139.69088,1.02966,11.66455-23.28976,134.24487-23.28976,134.24487H588.15857c-7.71911-53.09558-7.45543-122.80986-2.57357-134.80361-19.213-22.65621-62.495-66.96771-70.8789-78.16915-13.15073-17.57353-15.16865-38.11134-12.59253-56.06524C514.9848,589.902,569.39342,588.16276,569.39342,588.16276Z" class="color362e94 svgShape"></path><path fill="#fcbd06" d="M649.96221,315.83183s-18.14933,72.87143-23.61493,78.1443c-6.82714,6.59034-41.75324,19.98887-63.825,23.9953h0c-7.0028.84725-17.65734,2.12938-21.67169,2.57733-3.38213.37783-24.39152,3.29752-29.81643,5.30376-4.83473,1.787-17.43653,4.84319-28.17566,17.71052-3.66205,36.02976-4.09427,137.72412.32141,147.97718,4.417,10.25722,67.27783,4.37968,86.90151-1.73264,7.6764-27.218,11.5019-86.44109,13.1138-124.87317,0,0,60.58528-45.06044,65.14185-51.48947,4.55415-6.43171,18.96-92.9456,18.96-92.9456Z" class="colorfcba06 svgShape"></path><path fill="url(#c)" d="M656.88121,378.44282c-1.78918,8.941-6.24744,25.96151-14.28782,32.92764-8.03784,6.9663-55.93013,41.63063-59.96476,43.74754-6.66327,3.50087-15.32673-6.50252-19.07862-.33968-3.75136,6.16282,5.43738,10.20269,5.89512,21.16748.267,6.43091,6.69927,43.94293,2.1427,68.32776-4.55416,24.38105-10.22633,35.93921-11.00748,47.8438a97.12094,97.12094,0,0,0,9.501-2.30978c7.6764-27.218,11.5019-86.44109,13.1138-124.87317,0,0,60.58528-45.06044,65.14185-51.48947,1.80355-2.54926,5.15359-17.67251,8.54419-35.00145Z"></path><path fill="#d0dff8" d="M504.23115,400.27662c2.27379,4.42226,7.58332,17.28757,6.803,25.5759,5.07019,1.47031,18.55858-.22766,29.81643-5.30376-3.43062-3.30262-7.69681-6.30828-7.40884-10.83356.44795-7.03827,9.70157-1.33655,10.72007-12.35371,1.19229-12.84962-5.16985-34.98308-12.5525-39.084-8.26013-4.592-22.828-8.55655-35.05653,6.34844C486.57249,376.78483,499.60823,391.2904,504.23115,400.27662Z" class="colorf8d8d0 svgShape"></path><path fill="url(#d)" d="M530.87874,377.21775c3.55849-1.25059.4439-7.3675-.52073-10.87883-.68205-2.48172,1.27221-4.905,4.04967-5.623,10.34573-2.6758,11.80491-17.87129,3.44567-20.92745-8.3669-3.05348-11.42575,6.52477-16.76026,6.68946-6.21588.19019-7.7269-6.92679-15.69328-3.18738-7.35833,3.449-1.30767,9.25242-5.67538,12.28492-4.50166,3.12509-14.24916-.78369-17.45817,9.257-2.38122,7.44954,6.99838,10.62564,8.64909,17.33283,1.03086,4.18748,1.68872,22.66668,14.06352,22.71127,12.70522.04527,19.7862-13.17947,15.61578-24.52073-1.69073-4.59539-1.41-8.49678.96021-9.051C525.08716,370.47711,525.79405,379.01271,530.87874,377.21775Z"></path><path fill="#d0dff8" d="M651.59519,316.27184c0-5.606-3.07443-17.72759.30045-21.1018,3.37355-3.37421,7.63772-5.53061,10.31216-7.29669,3.03642-2.00221,10.36991-6.36416,11.13724-3.84122.77123,2.5236-1.81013,4.33495-1.81013,4.33495,1.68818-.45319,3.95068,1.23434,1.72876,4.44455,1.23434,0,2.79908,2.3709.65852,5.01969,1.9767,0,3.41289,1.23434,1.27745,4.74622-2.46062,4.03987-4.34152,7.2239-5.30953,11.68685-.724,3.33231-4.11858,5.82368-4.11858,5.82368l-13.91927-3.561" class="colorf8d8d0 svgShape"></path><rect width="76.255" height="139.623" x="205.613" y="369.574" fill="#ffffff" transform="rotate(-74.884 243.74 439.385)" class="colorfff svgShape"></rect><rect width="55.942" height="55.943" x="186.706" y="403.563" fill="#fcbd06" transform="rotate(-74.884 214.676 431.535)" class="colorfcba06 svgShape"></rect><path fill="#ffffff" d="M219.4984,430.58719a8.02367,8.02367,0,1,0-8.50981-2.29823c-8.52955-.18186-10.56722,5.41911-12.35439,12.03768l25.47611,6.88247C225.89909,440.58893,226.65017,434.641,219.4984,430.58719Z" class="colorfff svgShape"></path><polygon fill="#7dacfb" points="169.051 448.183 265.912 474.347 279.638 466.46 306.761 473.788 301.194 494.398 166.402 457.988 169.051 448.183" class="color807dfb svgShape"></polygon><rect width="3.925" height="43.346" x="283.301" y="401.987" fill="#7dacfb" transform="rotate(-74.885 285.264 423.66)" class="color807dfb svgShape"></rect><rect width="3.926" height="43.346" x="281.006" y="410.485" fill="#7dacfb" transform="rotate(-74.882 282.97 432.157)" class="color807dfb svgShape"></rect><rect width="3.926" height="43.347" x="278.711" y="418.981" fill="#7dacfb" transform="rotate(-74.884 280.674 440.654)" class="color807dfb svgShape"></rect><path fill="none" stroke="#ffce3e" stroke-linecap="round" stroke-linejoin="round" stroke-width="2" d="M656.32516,669.83132q-2.121,1.64439-4.28714,3.23238" class="colorStrokeffd03e svgStroke"></path><path fill="none" stroke="#ffce3e" stroke-dasharray="8.003 8.003" stroke-linecap="round" stroke-linejoin="round" stroke-width="2" d="M643.20129,679.18206a198.57118,198.57118,0,0,1-277.54338-62.4024" class="colorStrokeffd03e svgStroke"></path><path fill="none" stroke="#ffce3e" stroke-linecap="round" stroke-linejoin="round" stroke-width="2" d="M362.90893,612.17554q-1.34462-2.32295-2.628-4.68524" class="colorStrokeffd03e svgStroke"></path><path fill="none" stroke="#9cc1ff" stroke-linecap="round" stroke-linejoin="round" stroke-width="2" d="M429.75655,344.44575q2.275-1.422,4.59083-2.78364" class="colorStroke9f9cff svgStroke"></path><path fill="none" stroke="#9cc1ff" stroke-dasharray="7.53 7.53" stroke-linecap="round" stroke-linejoin="round" stroke-width="2" d="M443.18746,336.763a199.14255,199.14255,0,0,1,152.2024-12.9506" class="colorStroke9f9cff svgStroke"></path><path fill="none" stroke="#9cc1ff" stroke-linecap="round" stroke-linejoin="round" stroke-width="2" d="M600.19947,325.42071q2.53853.88545,5.04547,1.8374" class="colorStroke9f9cff svgStroke"></path><path fill="#ffce3e" d="M381.36038 317.39427l-16.03656 3.25539a2.50561 2.50561 0 00-1.87726 1.65926l-5.19986 15.51393a2.50439 2.50439 0 00.49825 2.45462l10.83747 12.25878a2.50474 2.50474 0 002.37464.79573l16.03534-3.25371a2.50354 2.50354 0 001.87593-1.658l5.19982-15.5158a2.50419 2.50419 0 00-.498-2.45414l-10.83657-12.26078A2.50272 2.50272 0 00381.36038 317.39427zM966.27 518.63748l7.2967-14.33631a3.36373 3.36373 0 014.52393-1.47435l14.33631 7.298a3.366 3.366 0 011.473 4.52515l-7.29672 14.33644a3.36311 3.36311 0 01-4.52393 1.47422l-14.33766-7.298A3.36585 3.36585 0 01966.27 518.63748z" class="colorffd03e svgShape"></path><path fill="#4285f4" d="M611.336 125.0809l3.38805 23.67a3.36311 3.36311 0 005.40785 2.16808l18.80518-14.76772a3.36311 3.36311 0 00-.825-5.76741l-22.19457-8.90227A3.36357 3.36357 0 00611.336 125.0809zM320.89982 777.21975l-16.33395 17.4607a3.36273 3.36273 0 001.69463 5.57453l23.289 5.41576a3.36486 3.36486 0 003.98225-4.255l-6.957-22.87646A3.362 3.362 0 00320.89982 777.21975z" class="color6b67e9 svgShape"></path></g></svg></g></svg>