<svg id="SvgjsSvg1333" width="550" height="550" xmlns="http://www.w3.org/2000/svg" version="1.1" xmlns:xlink="http://www.w3.org/1999/xlink" xmlns:svgjs="http://svgjs.com/svgjs"><defs id="SvgjsDefs1334"></defs><g id="SvgjsG1335"><svg xmlns="http://www.w3.org/2000/svg" viewBox="0 0 1100 1100" width="550" height="550"><g data-name="Secondary shapes" fill="#ea4335" class="color000 svgShape"><path fill="#e9f1ff" d="M330.1356,1033.25588c0-11.46481,75.97793-20.758,169.69811-20.758,93.72237,0,169.69935,9.29324,169.69935,20.758,0,11.46636-75.977,20.75653-169.69935,20.75653C406.11353,1054.01241,330.1356,1044.72224,330.1356,1033.25588Z" class="colore9efff svgShape"></path><path fill="#34a853" d="M815.62679,615.38876c-4.66222,51.07185,34.62973,78.624,94.96145,75.728C905.58433,644.1808,868.38338,596.40585,815.62679,615.38876Z" class="color20196f svgShape"></path><path fill="#e9eef7" d="M685.15343,608.36613c-7.789-.60481-57.43986,53.662-47.68224,63.8365,7.59728,7.9239,16.17487.04091,19.0641-3.06407,4.55153-4.894,14.72572-17.37906,17.81485-13.43833,5.59148,7.13043-24.1795,35.42288-31.00638,42.76167-6.82535,7.34034-18.08918,23.44862-15.31943,34.187,2.77159,10.73563,5.12908,14.77415,16.36093,1.26708,11.236-13.50691,30.04208-42.86947,32.06864-30.19077,2.028,12.67808-17.87236,32.07324-25.19409,47.37485-7.32234,15.30129-16.06753,46.916-3.504,44.91295,11.234-1.7916,26.19838-49.59855,32.613-43.63556,5.12954,4.77141-3.862,16.15211-11.63751,37.08453-7.776,20.93384-14.90363,40.772-2.89015,46.53835,9.64753,4.6307,11.797-9.825,16.13289-21.05807,4.33654-11.23462,10.96782-26.64986,14.63176-20.87431,3.6644,5.77585-22.84783,58.65545-8.93372,69.60912,9.20559,7.24607,11.27214-5.83505,17.05429-18.622,5.78108-12.78619,8.76642-16.85332,10.90358-14.86442,2.13633,1.98751-2.8605,20.504-5.872,30.60088-3.01486,10.09517-3.8846,25.606,5.42648,28.73932,9.31062,3.133,12.4648-13.54568,12.20308-19.97705-.264-6.43138,2.22-12.67378,4.1351-12.73437,1.91693-.06074,4.2941,21.10082,15.00035,18.16177,10.70657-2.93844,6.4606-22.94655-1.6632-30.50063-8.11993-7.55453-18.82865-18.04351-16.07384-21.00564,2.75668-2.96457,12.16125,5.78278,19.5717,12.67379,7.41015,6.893,11.9306,7.93666,13.76756,5.96237,6.12492-6.58546,1.64737-21.10575-3.76834-26.14163-5.41341-5.03776-39.43989-29.31566-35.37076-33.69064,4.06928-4.37529,15.87255,6.07832,21.858,11.64473,5.98482,5.56549,19.94952,18.55481,26.77533,11.21694,6.82642-7.33925-8.30649-28.78714-20.36317-38.68363-12.05452-9.89818-32.80045-24.45475-29.64917-27.842,3.14986-3.38669,21.74357,5.48337,29.00963,12.24306,7.2679,6.75922,16.82132,22.48954,25.22345,13.45679,8.40044-9.0326-.988-21.18816-15.25577-34.45873-5.96176-5.546-20.85893-19.12285-33.52256-21.55522-14.41986-2.77006-21.15264-6.51488-20.67241-9.9.95585-6.74354,13.32593-2.60936,21.47649,2.33981,8.15317,4.95009,32.55748,21.85813,38.02,7.98617,5.46046-13.872-17.64188-22.46463-26.59452-26.84145-8.94941-4.37806-41.81674-17.04584-39.09528-24.257,2.717-7.20961,18.2591,4.0856,23.452,7.07386,5.19413,2.98719,17.916,5.73987,17.68507.13025C741.10479,659.22129,699.048,609.44284,685.15343,608.36613Z" class="colore9edf7 svgShape"></path><path fill="#dde7f8" d="M289.89179,719.83167c-17.32786-6.51872-17.26035-23.98945-16.348-34.33C278.69223,687.897,298.96052,698.81558,289.89179,719.83167Z" class="colordde2f8 svgShape"></path><path fill="none" stroke="#dde7f8" stroke-linecap="round" stroke-linejoin="round" stroke-width="2" d="M329.44915,877.917c1.272-38.52724-9.31261-101.24059-40.67236-160.70273" class="colorStrokedde2f8 svgStroke"></path><path fill="#dde7f8" d="M337.089 852.18721c15.47784-34.03262 42.42784-28.7287 63.145-25.49564C394.70867 836.74845 378.20811 873.301 337.089 852.18721zM334.0225 816.4906c5.23873-29.5546 27.25341-30.81154 44.00539-32.43476C375.74006 792.97571 370.2124 824.69283 334.0225 816.4906zM323.04376 779.05669c-1.56925-25.748 16.57176-31.2275 30.24459-35.95493C353.17133 751.01426 354.9328 778.62873 323.04376 779.05669zM309.52777 743.83462c-5.39557-15.09645 4.48555-21.50861 11.82665-26.69689C322.65487 721.88146 328.48808 738.0591 309.52777 743.83462zM317.64588 850.55492c-14.36881-29.69732-38.03009-24.45046-56.2366-21.16479C266.49484 838.14638 281.81643 870.0422 317.64588 850.55492zM313.5846 811.79486c-8.257-27.233-29.12282-25.94-45.0798-25.58575C271.66283 794.35137 280.4357 823.59214 313.5846 811.79486zM301.91957 766.90651c-10.56894-16.32172-24.02618-11.52694-34.43213-8.27727C271.09819 763.376 282.38262 780.9158 301.91957 766.90651zM291.93112 737.21365c-4.30917-10.47867-12.52938-9.16914-18.8379-8.41981C274.655 731.89928 279.24181 743.15143 291.93112 737.21365z" class="colordde2f8 svgShape"></path><path fill="#7dacfb" d="M421.65331,974.56245c20.16542-13.24488,69.85625-110.8769,30.79141-129.79953-37.02781-17.9331-48.77326,58.43494-50.97851,68.35357-7.71569-37.47451-17.81455-73.84679-42.52472-67.23334-24.70863,6.61191,0,59.51919,0,59.51919-22.5043-28.65658-78.58913-72.76255-104.117-59.52365-25.52855,13.23874,51.85393,60.72354,51.85393,60.72354-35.16424-19.94831-140.25284-46.80743-35.30156,3.89383-48.05022-15.54241-141.7575-23.16937-37.59246,9.25187-62.69613-5.44354-94.51674,3.09206-95.619,11.91138-1.10224,8.81793,17.28742,21.29242,98.31,23.34067-40.0176,6.61343-60.09061,15.9765-49.77862,19.56247Z" class="color807dfb svgShape"></path><path fill="#ffffff" d="M287.3893,927.43964a3.25345,3.25345,0,1,0-3.25352,3.25259A3.2537,3.2537,0,0,0,287.3893,927.43964Z" class="colorfff svgShape"></path><circle cx="394.115" cy="946.595" r="5.01" fill="#ffffff" class="colorfff svgShape"></circle><path fill="#ffffff" d="M333.9084,909.48546a4.276,4.276,0,1,0-4.27595,4.27688A4.27569,4.27569,0,0,0,333.9084,909.48546Z" class="colorfff svgShape"></path><path fill="#2e5494" d="M753.17486,579.83394c-51.102,72.24462-16.23531,147.35173,76.36281,195.15855C862.62444,700.57505,848.35715,597.0823,753.17486,579.83394Z" class="color362e94 svgShape"></path><path fill="none" stroke="#5280cc" stroke-linecap="round" stroke-linejoin="round" stroke-width="2" d="M753.17486,579.83394c15.51979,33.82027,42.49026,120.12279,65.88875,171.69886" class="colorStroke5652cc svgStroke"></path><path fill="#cedef8" d="M827.56123,200.83821c39.65824,28.39206,81.16239,9.413,107.80976-41.47737C894.45735,140.88753,837.367,148.42531,827.56123,200.83821Z" class="colorced3f8 svgShape"></path><path fill="#e9eef7" d="M821.70173,200.06258c71.45686-9.77212,96.77766-72.33059,73.71578-154.075C832.69308,67.697,779.003,133.78675,821.70173,200.06258Z" class="colore9edf7 svgShape"></path><path fill="none" stroke="#dde7f8" stroke-linecap="round" stroke-linejoin="round" stroke-width="2" d="M821.70173,200.06258c11.503-28.06182,47.88476-92.14772,65.57678-134.78346" class="colorStrokedde2f8 svgStroke"></path><path fill="#3e69af" d="M355.00184 531.37669c-48.77326.33168-71.20021 40.07834-62.85451 96.91466C336.10658 619.19356 377.869 579.54593 355.00184 531.37669zM356.92786 206.92791c7.44165-45.13765-25.74152-72.186-79.60221-73.49619C278.75374 175.51111 308.77152 220.41468 356.92786 206.92791z" class="color423eaf svgShape"></path><path fill="none" stroke="#2e5494" stroke-linecap="round" stroke-linejoin="round" stroke-width="2" d="M356.92786,206.92791c-14.85736-12.21938-46.8971-46.25662-69.43077-64.9549" class="colorStroke362e94 svgStroke"></path><path fill="#7dacfb" d="M346.46839,455.893c-12.37761-11.85525-52.51331-30.586-78.37708-2.70227-11.70608,12.61937-14.05819,16.62453-13.5449,23.54.33185,4.50277,2.86232,8.09336.26387,11.1705-4.75157,5.62559-25.21269-12.19954-44.36521,6.56009-19.15268,18.76194-9.41948,35.52422-14.64991,40.5318-5.231,5.00991-14.99251-.44761-20.542,11.15545-5.54857,11.60306,12.87937,21.01809,7.75629,36.90432-5.32668,16.52469-8.22653,45.83605,7.123,50.78553,15.349,4.94961,18.84835-8.00909,29.33042-11.7862,10.48251-3.77619,40.51906,6.76783,48.391-17.64632,7.82241-24.26069,7.24515-34.37571,38.5171-36.06658,31.27133-1.693,47.39776-29.27982,45.37013-44.71212-2.0298-15.43107,5.75277-11.18926,9.80068-3.07315,4.04821,8.11489,11.23108-3.99885,10.37457-15.357C371.06015,493.8379,362.00433,470.77294,346.46839,455.893Z" class="color807dfb svgShape"></path><path fill="none" stroke="#6798e9" stroke-linecap="round" stroke-linejoin="round" stroke-width="2" d="M353.96588 451.55612c-74.3424 36.12-127.48126 101.06916-152.034 155.148M225.6198 564.68535c-4.00116-.1224-20.72254-2.91476-29.17388-8.23882M218.70542 575.40345c1.19174 6.15305 7.89776 19.60015 10.38779 23.088M259.0441 522.64764c-6.0471.31323-18.246.30431-33.40568-9.433M245.24855 538.39733c-.223 5.77415 6.72263 23.83041 10.49452 31.39727M289.39065 493.75655c.33368 8.49009 5.81506 17.41474 8.97216 23.74324M307.94422 479.2415c-7.95234 1.49544-22.93609-1.43162-33.1229-6.10108" class="colorStroke6b67e9 svgStroke"></path><path fill="#2e5494" d="M823.08738,275.5698a2.25721,2.25721,0,0,0-2.25293,2.0421q-.18037,1.98968-.18268,4.02684,0,2.03649.18268,4.02623a2.25722,2.25722,0,0,0,2.25293,2.04225h3.4791a2.26623,2.26623,0,0,1,2.21,1.79991q.37666,1.74562.91448,3.42713a2.26623,2.26623,0,0,1-1.0149,2.66116l-3.01576,1.74135a2.25823,2.25823,0,0,0-.9285,2.89722,44.29673,44.29673,0,0,0,4.03145,6.97067,2.258,2.258,0,0,0,2.97089.64046l3.01471-1.7404a2.26545,2.26545,0,0,1,2.81142.45148q1.19458,1.3136,2.51006,2.50956a2.26665,2.26665,0,0,1,.45145,2.81173l-1.7404,3.01441a2.25813,2.25813,0,0,0,.64046,2.97132,44.30215,44.30215,0,0,0,6.97066,4.03148,2.25861,2.25861,0,0,0,2.89723-.92894l1.74086-3.01579a2.26639,2.26639,0,0,1,2.66119-1.01444q1.68035.53652,3.42712.91449a2.2656,2.2656,0,0,1,1.79991,2.20956v3.47956a2.25718,2.25718,0,0,0,2.04225,2.25277q1.98967.18037,4.02669.18281,2.0358,0,4.02623-.18281a2.25718,2.25718,0,0,0,2.04225-2.25277v-3.47956a2.26575,2.26575,0,0,1,1.79993-2.20956q1.74582-.37667,3.42711-.91449a2.26638,2.26638,0,0,1,2.66118,1.01444l1.74086,3.01579a2.25917,2.25917,0,0,0,2.89769.92894,44.31436,44.31436,0,0,0,6.97066-4.03148,2.25845,2.25845,0,0,0,.64046-2.97132l-1.74039-3.01441a2.26541,2.26541,0,0,1,.45147-2.81173q1.31361-1.19412,2.50957-2.50956a2.2662,2.2662,0,0,1,2.81189-.45148l3.0144,1.7404a2.25786,2.25786,0,0,0,2.97076-.64046,44.29749,44.29749,0,0,0,4.032-6.97067,2.2585,2.2585,0,0,0-.9291-2.89722l-3.01578-1.74135a2.26679,2.26679,0,0,1-1.0149-2.66116q.53721-1.68034.915-3.42713a2.26571,2.26571,0,0,1,2.20955-1.79991h3.47972a2.25672,2.25672,0,0,0,2.25231-2.04225q.18107-1.989.18314-4.02623,0-2.03647-.18314-4.02684a2.25671,2.25671,0,0,0-2.25231-2.0421H903.4086a2.26586,2.26586,0,0,1-2.20955-1.7999q-.37737-1.74521-.915-3.42728a2.26654,2.26654,0,0,1,1.0149-2.661l3.01578-1.74086a2.25871,2.25871,0,0,0,.9291-2.89722,44.26382,44.26382,0,0,0-4.032-6.97069,2.25774,2.25774,0,0,0-2.97076-.64059l-3.0144,1.74055a2.26664,2.26664,0,0,1-2.81189-.45163q-1.19389-1.31406-2.50957-2.50957a2.26538,2.26538,0,0,1-.45147-2.81173l1.74039-3.01486a2.25771,2.25771,0,0,0-.64046-2.97073,44.31582,44.31582,0,0,0-6.97066-4.03161,2.25922,2.25922,0,0,0-2.89769.92906l-1.74086,3.01536a2.26628,2.26628,0,0,1-2.66118,1.0149q-1.68036-.53652-3.42711-.91464a2.26613,2.26613,0,0,1-1.79993-2.21v-3.47911a2.25717,2.25717,0,0,0-2.04225-2.25276q-1.98874-.18037-4.02623-.18284-2.03649,0-4.02669.18284a2.25717,2.25717,0,0,0-2.04225,2.25276v3.47911a2.266,2.266,0,0,1-1.79991,2.21q-1.74492.37689-3.42712.91464a2.26629,2.26629,0,0,1-2.66119-1.0149l-1.74086-3.01536a2.25865,2.25865,0,0,0-2.89723-.92906,44.30361,44.30361,0,0,0-6.97066,4.03161,2.25739,2.25739,0,0,0-.64046,2.97073l1.7404,3.01486a2.26662,2.26662,0,0,1-.45145,2.81173q-1.31435,1.19412-2.51006,2.50957a2.26588,2.26588,0,0,1-2.81142.45163l-3.01471-1.74055a2.25787,2.25787,0,0,0-2.97089.64059,44.26306,44.26306,0,0,0-4.03145,6.97069,2.25844,2.25844,0,0,0,.9285,2.89722l3.01576,1.74086a2.266,2.266,0,0,1,1.0149,2.661q-.5365,1.68034-.91448,3.42728a2.26639,2.26639,0,0,1-2.21,1.7999Zm41.90039-15.655a21.72382,21.72382,0,1,1-21.72436,21.7239A21.72379,21.72379,0,0,1,864.98777,259.91484Z" class="color362e94 svgShape"></path><path fill="#2e5494" d="M855.96735 281.63874a9.02021 9.02021 0 119.02029 9.02015A9.02028 9.02028 0 01855.96735 281.63874zM199.73789 357.95589a2.25716 2.25716 0 00-2.25277 2.0421q-.18037 1.98966-.18284 4.02684 0 2.03649.18284 4.02623a2.25717 2.25717 0 002.25277 2.04225h3.4791a2.26626 2.26626 0 012.21017 1.79991q.37667 1.74562.91449 3.4271a2.2663 2.2663 0 01-1.0149 2.66121l-3.01579 1.7413a2.25835 2.25835 0 00-.92862 2.89725 44.3068 44.3068 0 004.0316 6.97066 2.25776 2.25776 0 002.97073.64046l3.01486-1.74039a2.26542 2.26542 0 012.81143.45147q1.19457 1.31357 2.51 2.50957a2.26656 2.26656 0 01.45148 2.8117l-1.74055 3.01459a2.258 2.258 0 00.64062 2.97119 44.29419 44.29419 0 006.97066 4.03145 2.2586 2.2586 0 002.89723-.92894l1.74085-3.01581a2.26625 2.26625 0 012.661-1.01441q1.68033.5365 3.42727.91446a2.26591 2.26591 0 011.79991 2.20958v3.47957a2.25694 2.25694 0 002.04225 2.25276q1.98943.18038 4.0267.18284 2.03577 0 4.02621-.18284a2.257 2.257 0 002.04226-2.25276v-3.47957a2.26574 2.26574 0 011.7999-2.20958q1.74562-.37664 3.42713-.91446a2.26643 2.26643 0 012.66119 1.01441l1.74086 3.01581a2.25916 2.25916 0 002.89769.92894 44.32267 44.32267 0 006.97066-4.03145 2.25833 2.25833 0 00.64046-2.97119l-1.7404-3.01459a2.26538 2.26538 0 01.45148-2.8117q1.3136-1.19389 2.50957-2.50957a2.26614 2.26614 0 012.81188-.45147l3.01442 1.74039a2.25778 2.25778 0 002.97071-.64046 44.296 44.296 0 004.03192-6.97066 2.25848 2.25848 0 00-.92894-2.89725l-3.01579-1.7413a2.26687 2.26687 0 01-1.0149-2.66121q.53721-1.68032.915-3.4271a2.26573 2.26573 0 012.20956-1.79991h3.47956a2.25677 2.25677 0 002.25246-2.04225q.18084-1.989.18315-4.02623 0-2.03649-.18315-4.02684a2.25675 2.25675 0 00-2.25246-2.0421h-3.47956a2.26588 2.26588 0 01-2.20956-1.79991q-.37734-1.74516-.915-3.42728a2.26657 2.26657 0 011.0149-2.661l3.01579-1.74086a2.2586 2.2586 0 00.92894-2.89723 44.25986 44.25986 0 00-4.03192-6.97066 2.25783 2.25783 0 00-2.97071-.64064l-3.01442 1.74057a2.26661 2.26661 0 01-2.81188-.45163q-1.19389-1.31406-2.50957-2.50941a2.26562 2.26562 0 01-.45148-2.81188l1.7404-3.01487a2.25771 2.25771 0 00-.64046-2.97073 44.32429 44.32429 0 00-6.97066-4.03161 2.25923 2.25923 0 00-2.89769.9291l-1.74086 3.01532a2.26626 2.26626 0 01-2.66119 1.0149q-1.68035-.53651-3.42713-.91448a2.26627 2.26627 0 01-1.7999-2.21018v-3.47913a2.25721 2.25721 0 00-2.04226-2.25276q-1.989-.18034-4.02621-.18281-2.03651 0-4.0267.18281a2.2572 2.2572 0 00-2.04225 2.25276v3.47913a2.26644 2.26644 0 01-1.79991 2.21018q-1.74516.37666-3.42727.91448a2.26608 2.26608 0 01-2.661-1.0149l-1.74085-3.01532a2.25867 2.25867 0 00-2.89723-.9291 44.29581 44.29581 0 00-6.97066 4.03161 2.25743 2.25743 0 00-.64062 2.97073l1.74055 3.01487a2.2668 2.2668 0 01-.45148 2.81188q-1.31429 1.19389-2.51 2.50941a2.26588 2.26588 0 01-2.81143.45163l-3.01486-1.74057a2.25781 2.25781 0 00-2.97073.64064 44.27066 44.27066 0 00-4.0316 6.97066 2.25847 2.25847 0 00.92862 2.89723l3.01579 1.74086a2.266 2.266 0 011.0149 2.661q-.53652 1.68034-.91449 3.42728a2.26642 2.26642 0 01-2.21017 1.79991zm41.90056-15.655a21.72383 21.72383 0 11-21.72438 21.7239A21.72376 21.72376 0 01241.63845 342.30093z" class="color362e94 svgShape"></path><circle cx="241.638" cy="364.025" r="9.02" fill="#2e5494" class="color362e94 svgShape"></circle><path fill="#cedef8" d="M196.43531,466.89572c-15.91115,0-39.02961-4.8995-32.45813-31.08527,5.00513-19.94522,28.78359-19.74639,42.257-11.17234-21.12281-19.28553,14.69835-74.71653,58.79323-30.009,0-25.10967,36.01537-78.25084,76.5538-53.28141,33.07124,20.37009,21.43512,52.66893,6.73677,68.59207,18.98537-10.41132,48.68823-10.105,58.18076,14.086,9.49268,24.19088-4.89935,42.86993-27.55942,42.86993Z" class="colorced3f8 svgShape"></path><path fill="#e9eef7" d="M337.54175,209.61539V567.116a28.50277,28.50277,0,0,0,28.41915,28.41932H831.18965A28.5028,28.5028,0,0,0,859.609,567.116V209.61539Z" class="colore9edf7 svgShape"></path><path fill="#7dacfb" d="M859.609,199.81931A28.5028,28.5028,0,0,0,831.18965,171.4H365.9609a28.50276,28.50276,0,0,0-28.41915,28.41931v9.79608H859.609Z" class="color807dfb svgShape"></path><path fill="#ffffff" d="M424.97864 191.88662a7.72338 7.72338 0 117.72307 7.72295A7.72317 7.72317 0 01424.97864 191.88662zM396.62944 200.58587c-1.54372 0-2.17511-1.09348-1.40348-2.43038L403.114 184.4917c.77163-1.33687 2.03564-1.33687 2.80729 0l7.88882 13.66379c.77148 1.3369.13947 2.43038-1.40364 2.43038zM369.13169 184.163h10.76608a2.34042 2.34042 0 012.34042 2.34042V197.2693a2.34026 2.34026 0 01-2.34026 2.34026H369.13169a2.34026 2.34026 0 01-2.34026-2.34026V186.50323A2.34026 2.34026 0 01369.13169 184.163z" class="colorfff svgShape"></path><path fill="#9cc1ff" d="M468.37078,179.30129H779.32464a5.68389,5.68389,0,0,1,5.68389,5.68389v11.045a5.68374,5.68374,0,0,1-5.68374,5.68374h-310.954a5.68389,5.68389,0,0,1-5.68389-5.68389V184.98518A5.68389,5.68389,0,0,1,468.37078,179.30129Z" class="color9f9cff svgShape"></path><rect width="368.08" height="46.131" x="361.511" y="233.585" fill="#ffffff" class="colorfff svgShape"></rect><rect width="54.729" height="46.131" x="729.591" y="233.585" fill="#4285f4" class="color6b67e9 svgShape"></rect><path fill="#cedef8" d="M374.76086 263.82343a2.64342 2.64342 0 112.64334 2.64366A2.64347 2.64347 0 01374.76086 263.82343zM389.4692 263.82343a2.6435 2.6435 0 112.64348 2.64366A2.6436 2.6436 0 01389.4692 263.82343zM404.17768 263.82343a2.6435 2.6435 0 112.6435 2.64366A2.64351 2.64351 0 01404.17768 263.82343zM418.88617 263.82343a2.64351 2.64351 0 112.64335 2.64366A2.64349 2.64349 0 01418.88617 263.82343zM433.59467 263.82343a2.6435 2.6435 0 112.6435 2.64366A2.64361 2.64361 0 01433.59467 263.82343zM448.303 263.82343a2.6435 2.6435 0 112.64365 2.64366A2.64374 2.64374 0 01448.303 263.82343zM463.0115 263.82343a2.64351 2.64351 0 112.64366 2.64366A2.64365 2.64365 0 01463.0115 263.82343zM477.72 263.82343a2.6435 2.6435 0 112.6435 2.64366A2.64361 2.64361 0 01477.72 263.82343zM492.42865 263.82343a2.64381 2.64381 0 112.64273 2.64366A2.64335 2.64335 0 01492.42865 263.82343zM507.137 263.82343a2.6442 2.6442 0 112.6435 2.64366A2.64361 2.64361 0 01507.137 263.82343zM521.84471 263.82343a2.645 2.645 0 112.645 2.64366A2.64485 2.64485 0 01521.84471 263.82343zM536.554 263.82343a2.64481 2.64481 0 112.64488 2.64366A2.64479 2.64479 0 01536.554 263.82343zM551.26324 263.82343a2.64481 2.64481 0 112.64473 2.64366A2.64458 2.64458 0 01551.26324 263.82343zM565.97237 263.82343a2.64489 2.64489 0 112.64471 2.64366A2.64465 2.64465 0 01565.97237 263.82343zM580.68146 263.82343a2.64489 2.64489 0 112.64489 2.64366A2.6448 2.6448 0 01580.68146 263.82343zM595.39059 263.82343a2.64489 2.64489 0 112.645 2.64366A2.64481 2.64481 0 01595.39059 263.82343zM610.09983 263.82343a2.64489 2.64489 0 112.64474 2.64366A2.64467 2.64467 0 01610.09983 263.82343z" class="colorced3f8 svgShape"></path><rect width="96.389" height="127.17" x="729.591" y="381.788" fill="#edb000" class="colored9f00 svgShape"></rect><g style="mix-blend-mode:multiply" fill="#ea4335" class="color000 svgShape"><line x1="702.593" x2="825.98" y1="299.61" y2="299.61" fill="none" stroke="#e9eef7" stroke-width="4" class="colorStrokee9edf7 svgStroke"></line><line x1="397.797" x2="675.596" y1="299.61" y2="299.61" fill="none" stroke="#e9eef7" stroke-width="4" class="colorStrokee9edf7 svgStroke"></line><line x1="518.577" x2="825.98" y1="315.713" y2="315.713" fill="none" stroke="#e9eef7" stroke-width="4" class="colorStrokee9edf7 svgStroke"></line><line x1="361.511" x2="475.477" y1="315.713" y2="315.713" fill="none" stroke="#e9eef7" stroke-width="4" class="colorStrokee9edf7 svgStroke"></line><line x1="613.31" x2="825.98" y1="331.817" y2="331.817" fill="none" stroke="#e9eef7" stroke-width="4" class="colorStrokee9edf7 svgStroke"></line><line x1="361.511" x2="591.047" y1="331.817" y2="331.817" fill="none" stroke="#e9eef7" stroke-width="4" class="colorStrokee9edf7 svgStroke"></line><line x1="361.511" x2="825.98" y1="347.921" y2="347.921" fill="none" stroke="#e9eef7" stroke-width="4" class="colorStrokee9edf7 svgStroke"></line><line x1="361.511" x2="825.98" y1="364.025" y2="364.025" fill="none" stroke="#e9eef7" stroke-width="4" class="colorStrokee9edf7 svgStroke"></line><line x1="600.283" x2="703.303" y1="396.232" y2="396.232" fill="none" stroke="#e9eef7" stroke-width="4" class="colorStrokee9edf7 svgStroke"></line><line x1="397.797" x2="555.523" y1="396.232" y2="396.232" fill="none" stroke="#e9eef7" stroke-width="4" class="colorStrokee9edf7 svgStroke"></line><line x1="361.511" x2="703.303" y1="412.336" y2="412.336" fill="none" stroke="#e9eef7" stroke-width="4" class="colorStrokee9edf7 svgStroke"></line><line x1="361.511" x2="703.303" y1="428.44" y2="428.44" fill="none" stroke="#e9eef7" stroke-width="4" class="colorStrokee9edf7 svgStroke"></line><line x1="361.511" x2="703.303" y1="444.544" y2="444.544" fill="none" stroke="#e9eef7" stroke-width="4" class="colorStrokee9edf7 svgStroke"></line><line x1="649.307" x2="703.303" y1="460.647" y2="460.647" fill="none" stroke="#e9eef7" stroke-width="4" class="colorStrokee9edf7 svgStroke"></line><line x1="361.511" x2="632.255" y1="460.647" y2="460.647" fill="none" stroke="#e9eef7" stroke-width="4" class="colorStrokee9edf7 svgStroke"></line><line x1="577.547" x2="703.303" y1="476.751" y2="476.751" fill="none" stroke="#e9eef7" stroke-width="4" class="colorStrokee9edf7 svgStroke"></line><line x1="361.511" x2="548.418" y1="476.751" y2="476.751" fill="none" stroke="#e9eef7" stroke-width="4" class="colorStrokee9edf7 svgStroke"></line><line x1="361.511" x2="674.173" y1="492.855" y2="492.855" fill="none" stroke="#e9eef7" stroke-width="4" class="colorStrokee9edf7 svgStroke"></line><line x1="361.511" x2="703.303" y1="508.959" y2="508.959" fill="none" stroke="#e9eef7" stroke-width="4" class="colorStrokee9edf7 svgStroke"></line><line x1="600.993" x2="703.303" y1="525.062" y2="525.062" fill="none" stroke="#e9eef7" stroke-width="4" class="colorStrokee9edf7 svgStroke"></line><line x1="361.511" x2="576.127" y1="525.062" y2="525.062" fill="none" stroke="#e9eef7" stroke-width="4" class="colorStrokee9edf7 svgStroke"></line><line x1="361.511" x2="703.303" y1="541.166" y2="541.166" fill="none" stroke="#e9eef7" stroke-width="4" class="colorStrokee9edf7 svgStroke"></line><line x1="361.511" x2="703.303" y1="557.27" y2="557.27" fill="none" stroke="#e9eef7" stroke-width="4" class="colorStrokee9edf7 svgStroke"></line></g><rect width="8.283" height="9.662" x="547.386" y="329.249" fill="#196f30" transform="rotate(90.011 551.528 334.08)" class="color1f196f svgShape"></rect><path fill="#2e5493" d="M560.78745,399.84445V338.222l-9.25988.00074v70.88223A9.26049,9.26049,0,0,0,560.78745,399.84445Z" class="color362e93 svgShape"></path><path fill="#196f30" d="M542.26785,338.222l-.00153,61.62249a9.26237,9.26237,0,0,0,9.26125,9.26048V338.2227Z" class="color1f196f svgShape"></path><path fill="#2e5493" d="M591.70172,234.68477a56.813,56.813,0,1,0-.00138,80.34521A56.81526,56.81526,0,0,0,591.70172,234.68477Zm-39.87983,91.89614a51.72469,51.72469,0,1,1,51.42922-52.0185A51.72487,51.72487,0,0,1,551.82189,326.58091Z" class="color362e93 svgShape"></path><path d="M584.15564,234.72149a51.72481,51.72481,0,0,1-72.39056,73.217,51.72465,51.72465,0,1,0,72.39056-73.217Z" style="mix-blend-mode:multiply" fill="#e9eef7" class="colore9edf7 svgShape"></path><path fill="#edb000" d="M419.87093,602.51108c-7.585-8.881-16.39861-24.87439-16.39861-30.73589,2.36871-7.10414,16.29651-14.45587,23.02943-33.20733,10.44085-29.07838,10.11962-81.54633,10.11962-81.54633-20.6089,10.61766-50.99649,50.61822-67.93424,110.58381-3.58366,12.68731,20.38393,43.419,47.93382,73.91768C417.0429,634.668,418.90724,612.78247,419.87093,602.51108Z" class="colored9f00 svgShape"></path><path fill="#34a853" d="M416.89774,651.22283c1.13453,92.11128,17.08843,106.89943,22.603,196.16053,4.49739,72.77561-20.54093,128.36944-23.66313,152.94891h16.72968c12.30011-32.60285,90.73824-151.67368,67.63238-349.10944Z" class="color20196f svgShape"></path><path fill="#f0e4c0" d="M411.94042,1006.44918a69.78062,69.78062,0,0,0,3.89721-6.11691h16.72968c-1.64167,4.73065-2.62274,8.76026-1.97813,11.129C426.23742,1013.128,419.87431,1008.81928,411.94042,1006.44918Z" class="colorf0ccc0 svgShape"></path><path fill="#34a853" d="M411.94042,1006.44918c7.93389,2.3701,14.297,6.67881,18.64876,5.01206,2.30076,1.66675,36.22681,13.874,39.68269,16.23561,3.52893,2.42008,3.01411,6.16966-.727,6.16966-5.46876,0-50.51627-1.98012-50.51627-1.98012-.91371.988-1.654,1.98012-1.654,1.98012H407.08013C404.00993,1028.54629,404.84243,1012.57425,411.94042,1006.44918Z" class="color20196f svgShape"></path><path fill="#3e69af" d="M416.89774,651.22283c0,83.94765,54.79516,87.73445,91.61951,169.23158,25.2762,55.94075,30.30087,165.09663,31.43587,179.87786h16.72831c9.09886-39.802,35.61431-191.7368-16.72831-349.10944Z" class="color423eaf svgShape"></path><path fill="#f0e4c0" d="M540.00033,1006.44918c-.04721-2.77667-.04721-6.11691-.04721-6.11691h16.72831c-.62585,4.73065,1.32245,8.76026,1.96489,11.129C554.29609,1013.128,547.92945,1008.81928,540.00033,1006.44918Z" class="colorf0ccc0 svgShape"></path><path fill="#34a853" d="M540.00033,1006.44918c7.92912,2.3701,14.29576,6.67881,18.646,5.01206,2.30351,1.66675,36.22759,13.874,39.68286,16.23561,3.53152,2.42008,3.01669,6.16966-.7258,6.16966-5.47,0-50.51768-1.98012-50.51768-1.98012-.91033.988-1.65536,1.98012-1.65536,1.98012H535.13527C532.0686,1028.54629,532.89834,1012.57425,540.00033,1006.44918Z" class="color20196f svgShape"></path><path fill="#fbbc05" d="M455.64949,446.06523c-24.05571,8.5473-29.43006,19.44515-35.7598,63.69686-6.325,44.24958-2.99195,141.46074-2.99195,141.46074H539.95312c4.38374-26.72151.98537-109.1588-7.98725-150.64063-4.81939-22.28379-5.96915-53.0815-31.25488-55.07485C482.908,444.10448,455.64949,446.06523,455.64949,446.06523Z" class="colorfcba06 svgShape"></path><path fill="#f7ebc9" d="M488.91448,372.30994c3.363,9.79269,16.49564,38.06054,12.80049,50.00621-3.02317,9.8053-12.67286,13.33607-29.81173,11.18525-17.15146-2.14681-23.78245-31.12248-27.61585-39.09312C438.22752,381.78479,481.83464,351.7024,488.91448,372.30994Z" class="colorf7d3c9 svgShape"></path><path fill="#f7ebc9" d="M486.9911,432.15882c.9111,5.2238,3.20554,12.88367,3.20554,12.88367-2.25492,3.05439-35.53729,6.91531-32.29223,1.47714,1.15944-9.588.3892-31.81971.3892-31.81971Z" class="colorf7d3c9 svgShape"></path><path fill="#2e5494" d="M444.21666,370.33181c15.01173-10.84391,33.36679-31.214,36.16222-29.63827.50452.28648-.30939,1.638.29155,1.99317.9783.57253,6.23194-12.48676,13.844-9.29306,7.6105,3.19309,8.13718,25.90544-5.59994,38.91629-13.73926,13.01131,3.14373,20.31594-2.76421,27.22635-5.90594,6.9113-1.38134,26.45579-13.085,29.04516-11.70762,2.59076-17.07644,11.19833-18.24142,3.75-1.165-7.44672-10.848-20.72113-12.71914-33.3863C440.232,386.2814,435.89356,376.34724,444.21666,370.33181Z" class="color362e94 svgShape"></path><path fill="#f7ebc9" d="M481.53709 396.36488c-.7418-2.92583.181-5.68235 2.05917-6.1612 1.88094-.47808 4.00823 1.507 4.75126 4.4308.74518 2.92368-.17822 5.68189-2.05917 6.16059C484.40818 401.273 482.28212 399.29086 481.53709 396.36488zM549.034 389.641c-5.516-2.47358-10.07717-8.14212-9.09042-17.87867.98645-9.73641-3.6095-17.50038 2.32427-16.02189 5.93362 1.4793 16.98774-3.39773 18.5196-4.92961 6.63866 0 6.25285 16.90929 4.42111 21.69115S549.034 389.641 549.034 389.641z" class="colorf7d3c9 svgShape"></path><path fill="#fbbc05" d="M499.027,445.50735c33.44107,3.24644,88.82823-4.08176,88.82823-14.92778-7.07722-7.07707-39.65378-39.83815-39.65378-39.83815,7.72092-10.191,14.01806-18.70151,14.01806-18.70151,36.44962,24.98681,89.01261,55.79775,74.71714,76.99559-19.28861,28.59831-115.14161,60.03279-115.14161,60.03279Z" class="colorfcba06 svgShape"></path><path fill="#3e69af" d="M758.45156,565.58846A14.2514,14.2514,0,0,0,744.2419,551.3788H606.9498a14.2514,14.2514,0,0,0-14.20965,14.20966v3.76664H758.45156Z" class="color423eaf svgShape"></path><path fill="#ffffff" d="M592.74015,569.3551V675.476a14.25141,14.25141,0,0,0,14.20965,14.20966H744.2419A14.25141,14.25141,0,0,0,758.45156,675.476V569.3551Z" class="colorfff svgShape"></path><line x1="662.923" x2="690.332" y1="656.652" y2="601.838" fill="none" stroke="#7dacfb" stroke-linecap="round" stroke-linejoin="round" stroke-width="3" class="colorStroke807dfb svgStroke"></line><polyline fill="none" stroke="#807dfb" stroke-linecap="round" stroke-linejoin="round" stroke-width="3" points="655.694 647.039 630.27 629.548 655.694 612.057"></polyline><polyline fill="none" stroke="#807dfb" stroke-linecap="round" stroke-linejoin="round" stroke-width="3" points="698.531 612.057 723.957 629.548 698.531 647.039"></polyline><path fill="#cedef8" d="M920.52348,620.53213c14.361,0,33.40524-7.38383,28.031-26.51267-4.80185-17.092-23.06-19.88448-37.9732-10.49467,5.52339-12.15141,5.24718-41.702-13.53244-48.33008-18.77978-6.62806-45.01629,4.695-48.33037,28.44591-9.38984-27.61726-62.96741-23.19874-30.93134,22.09373-20.98921-14.361-48.05409-4.41883-48.05409,12.70392s15.46567,22.09386,24.85563,22.09386Z" class="colorced3f8 svgShape"></path><path fill="#34a853" d="M549.14687,752.0913a2.257,2.257,0,0,0-2.25277,2.04225q-.18034,1.98966-.18283,4.02669,0,2.03646.18283,4.02622a2.257,2.257,0,0,0,2.25277,2.04226h3.4791a2.26609,2.26609,0,0,1,2.21,1.79989q.37666,1.74588.91449,3.42714a2.26626,2.26626,0,0,1-1.0149,2.66119l-3.01579,1.74132a2.25827,2.25827,0,0,0-.92848,2.89723,44.28034,44.28034,0,0,0,4.03146,6.97066,2.2578,2.2578,0,0,0,2.97088.64046l3.01486-1.7404a2.26526,2.26526,0,0,1,2.81127.45148q1.19462,1.31361,2.51,2.50957a2.26684,2.26684,0,0,1,.4515,2.81188l-1.74042,3.01441a2.258,2.258,0,0,0,.64046,2.97119,44.31148,44.31148,0,0,0,6.97067,4.03161,2.25861,2.25861,0,0,0,2.89722-.9291l1.74088-3.01563a2.2665,2.2665,0,0,1,2.66117-1.01461q1.68034.53654,3.42713.9145a2.26572,2.26572,0,0,1,1.7999,2.20956v3.47972a2.25719,2.25719,0,0,0,2.04226,2.25277q1.98966.18037,4.02668.18283,2.0358,0,4.02623-.18283a2.25719,2.25719,0,0,0,2.04225-2.25277v-3.47972a2.26589,2.26589,0,0,1,1.79991-2.20956q1.74585-.37666,3.42713-.9145a2.26646,2.26646,0,0,1,2.66119,1.01461l1.74085,3.01563a2.25924,2.25924,0,0,0,2.89769.9291,44.31871,44.31871,0,0,0,6.97067-4.03161,2.25813,2.25813,0,0,0,.64046-2.97119l-1.74038-3.01441a2.26578,2.26578,0,0,1,.45146-2.81188q1.31359-1.19389,2.50972-2.50957a2.266,2.266,0,0,1,2.81173-.45148l3.0144,1.7404a2.25764,2.25764,0,0,0,2.97073-.64046,44.27106,44.27106,0,0,0,4.03207-6.97066,2.25851,2.25851,0,0,0-.92909-2.89723l-3.01564-1.74132a2.26674,2.26674,0,0,1-1.01505-2.66119q.53724-1.68012.915-3.42714a2.26573,2.26573,0,0,1,2.20958-1.79989h3.47969a2.25674,2.25674,0,0,0,2.25231-2.04226q.18106-1.98873.1833-4.02622,0-2.03649-.1833-4.02669a2.25674,2.25674,0,0,0-2.25231-2.04225h-3.47969a2.26573,2.26573,0,0,1-2.20958-1.79991q-.37713-1.74493-.915-3.42713a2.26674,2.26674,0,0,1,1.01505-2.66118l3.01564-1.74086a2.25866,2.25866,0,0,0,.92909-2.89723,44.26384,44.26384,0,0,0-4.03207-6.97066,2.2578,2.2578,0,0,0-2.97073-.64046l-3.0144,1.74039a2.26655,2.26655,0,0,1-2.81173-.45149q-1.19409-1.31427-2.50972-2.50957a2.26554,2.26554,0,0,1-.45146-2.81171l1.74038-3.01487a2.2577,2.2577,0,0,0-.64046-2.97088,44.31715,44.31715,0,0,0-6.97067-4.03161,2.25939,2.25939,0,0,0-2.89769.9291l-1.74085,3.01532a2.2662,2.2662,0,0,1-2.66119,1.0149q-1.68012-.53652-3.42713-.91449a2.26625,2.26625,0,0,1-1.79991-2.21v-3.47926a2.25692,2.25692,0,0,0-2.04225-2.25261q-1.98874-.18037-4.02623-.18284-2.03648,0-4.02668.18284a2.25692,2.25692,0,0,0-2.04226,2.25261V719.739a2.26608,2.26608,0,0,1-1.7999,2.21q-1.74493.37666-3.42713.91449a2.26624,2.26624,0,0,1-2.66117-1.0149l-1.74088-3.01532a2.25876,2.25876,0,0,0-2.89722-.9291,44.30992,44.30992,0,0,0-6.97067,4.03161,2.25759,2.25759,0,0,0-.64046,2.97088l1.74042,3.01487a2.2666,2.2666,0,0,1-.4515,2.81171q-1.31429,1.19392-2.51,2.50957a2.26584,2.26584,0,0,1-2.81127.45149l-3.01486-1.74039a2.258,2.258,0,0,0-2.97088.64046,44.27312,44.27312,0,0,0-4.03146,6.97066,2.25842,2.25842,0,0,0,.92848,2.89723l3.01579,1.74086a2.26625,2.26625,0,0,1,1.0149,2.66118q-.53649,1.68036-.91449,3.42713a2.26608,2.26608,0,0,1-2.21,1.79991Zm41.90039-15.65481a21.72375,21.72375,0,1,1-21.72419,21.72375A21.72366,21.72366,0,0,1,591.04726,736.43649Z" class="color20196f svgShape"></path><path fill="#34a853" d="M582.02681,758.16024a9.02022,9.02022,0,1,1,9.0203,9.02029A9.02031,9.02031,0,0,1,582.02681,758.16024Z" class="color20196f svgShape"></path><path fill="#7dacfb" d="M984.40364,838.03152l-18.77058,3.81023a2.50572,2.50572,0,0,0-1.87735,1.65933l-6.08611,18.15858a2.50525,2.50525,0,0,0,.49843,2.45545l12.68532,14.34913a2.503,2.503,0,0,0,2.37306.79521l18.77017-3.80867a2.5035,2.5035,0,0,0,1.87591-1.658l6.08629-18.161a2.50407,2.50407,0,0,0-.498-2.454l-12.684-14.351A2.50273,2.50273,0,0,0,984.40364,838.03152Z" class="color807dfb svgShape"></path><path fill="#ffce3e" d="M678.16293,87.19786l7.4003,26.356a3.84968,3.84968,0,0,0,6.46322,1.64891l19.12545-19.5857a3.85031,3.85031,0,0,0-1.802-6.422l-26.52871-6.7703A3.85046,3.85046,0,0,0,678.16293,87.19786Z" class="colorffd03e svgShape"></path><path fill="#fbbc05" d="M119.65485,737.19443l-18.70058,19.99043a3.8501,3.8501,0,0,0,1.94015,6.38217l26.66323,6.199a3.85145,3.85145,0,0,0,4.55905-4.87152l-7.965-26.18946A3.848,3.848,0,0,0,119.65485,737.19443Z" class="colorfcba06 svgShape"></path></g></svg></g></svg>