<svg id="SvgjsSvg1422" width="550" height="550" xmlns="http://www.w3.org/2000/svg" version="1.1" xmlns:xlink="http://www.w3.org/1999/xlink" xmlns:svgjs="http://svgjs.com/svgjs"><defs id="SvgjsDefs1423"></defs><g id="SvgjsG1424"><svg xmlns="http://www.w3.org/2000/svg" viewBox="0 0 1100 1100" width="550" height="550"><g data-name="Secondary shapes" fill="#ea4335" class="color000 svgShape"><path fill="#e9f1ff" d="M390.89527,983.42572c0-11.772,78.01433-21.31437,174.24679-21.31437,96.23451,0,174.248,9.54232,174.248,21.31437,0,11.77365-78.01347,21.31292-174.248,21.31292C468.9096,1004.73864,390.89527,995.19937,390.89527,983.42572Z" class="colore9efff svgShape"></path><path fill="#34a853" d="M727.16058,757.28447c11.39736,47.30661,55.10625,60.06906,108.4256,39.05525C816.76678,755.69863,768.76479,724.12962,727.16058,757.28447Z" class="color20196f svgShape"></path><path fill="#2e5494" d="M614.96684,611.25742c5.06482,4.815,70.14744-4.83209,69.11633-17.4-.8016-9.78672-11.20328-9.15568-14.96065-8.63086-5.92051.8283-20.02735,3.75253-19.94754-.72573.14272-8.10417,36.77052-10.94141,45.64986-12.18277,8.87934-1.24311,25.7868-6.06731,29.92379-15.08336,4.13436-9.015,4.77692-13.14837-10.64039-10.11151-15.42028,3.03424-45.04146,12.8017-39.29382,2.85843,5.74661-9.94386,30.503-12.17577,44.21911-18.66445,13.71638-6.4881,37.62567-23.49595,27.77563-29.19514-8.808-5.09573-46.17086,19.64114-47.25817,11.88277-.86782-6.20619,11.79481-9.03135,29.0033-19.172,17.20975-10.14156,33.35107-19.88845,28.26686-30.66951-4.083-8.658-13.732.16225-23.07994,5.512-9.34932,5.35048-22.65045,12.30766-21.9345,6.2316.716-6.07665,48.95621-27.8178,45.47988-43.2719-2.30034-10.22356-11.11606-2.3107-22.34475,3.30153-11.22753,5.61209-15.59447,6.75044-15.95558,4.164-.36112-2.585,13.55561-12.61683,21.34311-17.92544,7.78914-5.30539,17.14529-15.58,12.451-23.00891-4.69437-7.42831-16.295,2.36787-19.74239,6.97936-3.44586,4.61278-8.69246,7.54372-10.05594,6.505-1.3648-1.0394,8.92663-17.06822-.16269-21.06967-9.08914-4.00217-17.43242,12.28068-16.05669,22.10766,1.373,9.82524,2.88659,23.14811-.697,23.64944-3.586.50206-5.17744-10.87607-6.43222-19.84046-1.25347-8.96555-3.80214-12.24068-6.191-11.90714-7.96714,1.11472-13.05309,13.71927-12.13593,20.27041.91453,6.55129,10.83142,42.60221,5.5384,43.34251-5.29314.74049-7.58662-13.17534-8.59978-20.41616-1.01331-7.24012-3.37609-24.13545-12.25426-22.89409-8.87934,1.2418-10.4789,24.66713-7.69518,38.33927,2.7811,13.67219,8.966,35.48191,4.86739,36.05457-4.09715.57328-11.997-16.07535-13.22584-24.867-1.23012-8.79253,1.0155-25.1012-9.91307-23.573-10.92739,1.52879-11.27043,15.26326-8.85614,32.525,1.00835,7.2134,3.68658,25.04268,11.10336,33.87679,8.44527,10.05942,11.005,16.45778,8.7616,18.53633-4.46878,4.14109-10.72154-5.70851-13.58565-13.74279-2.86557-8.03644-10.26281-33.5425-21.88178-26.99691-11.61755,6.54675-.43188,25.54678,3.312,33.63648,3.741,8.08853,19.40475,35.42732,13.4466,38.89665-5.954,3.47064-10.36744-13.139-12.28536-18.14328-1.91938-5.00425-9.19595-14.09354-12.201-10.06977C604.8301,544.38847,605.93081,602.66973,614.96684,611.25742Z" class="color362e94 svgShape"></path><path fill="#dde7f8" d="M388.32631,702.17544c-16.4413-6.18519-16.37725-22.762-15.51158-32.57355C377.69976,671.87465,396.93105,682.23461,388.32631,702.17544Z" class="colordde2f8 svgShape"></path><path fill="none" stroke="#dde7f8" stroke-linecap="round" stroke-linejoin="round" stroke-width="2" d="M425.85976,852.17257c1.20693-36.556-8.83614-96.06074-38.59141-152.48057" class="colorStrokedde2f8 svgStroke"></path><path fill="#dde7f8" d="M433.10876 827.75917c14.68591-32.29138 40.25706-27.25883 59.91425-24.19118C487.78035 813.11032 472.124 847.79265 433.10876 827.75917zM430.19914 793.889c4.97067-28.04249 25.859-29.23511 41.75389-30.77529C469.78225 771.57717 464.53741 801.67152 430.19914 793.889zM419.78209 758.37029c-1.489-24.43061 15.72389-29.62978 28.69717-34.11534C448.36822 731.76264 450.03957 757.96424 419.78209 758.37029zM406.95764 724.95033c-5.1195-14.32408 4.256-20.40816 11.22154-25.331C419.4131 704.12035 424.94786 719.47029 406.95764 724.95033zM414.66039 826.21039c-13.63364-28.17788-36.08433-23.19946-53.35932-20.08191C366.12645 814.43674 380.66411 844.70063 414.66039 826.21039zM410.80691 789.43345c-7.83452-25.83961-27.6328-24.61284-42.77335-24.27669C371.03 772.88242 379.354 800.62713 410.80691 789.43345zM399.7387 746.84176c-10.02818-15.48664-22.79692-10.93718-32.67045-7.85377C370.49424 743.49193 381.20135 760.13429 399.7387 746.84176zM390.2613 718.66811c-4.0887-9.94255-11.88834-8.7-17.87407-7.989C373.869 713.62563 378.22122 724.30208 390.2613 718.66811z" class="colordde2f8 svgShape"></path><path fill="#dde7f8" d="M513.3464,943.87323c19.13368-12.56724,66.28213-105.204,29.216-123.15849-35.13332-17.01558-46.27783,55.44518-48.37025,64.85634-7.32093-35.55717-16.90309-70.0685-40.349-63.79342-23.44444,6.27362,0,56.474,0,56.474-21.35289-27.19042-74.56821-69.03973-98.79-56.4782C330.83072,834.33482,404.254,879.3901,404.254,879.3901c-33.3651-18.92765-133.077-44.41257-33.4954,3.69462-45.59178-14.7472-134.50464-21.98394-35.66907,8.77851-59.48835-5.165-89.68091,2.93386-90.72676,11.30194-1.04584,8.36678,16.40293,20.203,93.2801,22.14647-37.97017,6.27508-57.01616,15.15909-47.23177,18.56159Z" class="colordde2f8 svgShape"></path><path fill="#ffffff" d="M385.95185,899.1614a3.087,3.087,0,1,0-3.08706,3.08617A3.08722,3.08722,0,0,0,385.95185,899.1614Z" class="colorfff svgShape"></path><circle cx="487.217" cy="917.337" r="4.753" fill="#ffffff" transform="rotate(-89.903 487.217 917.337)" class="colorfff svgShape"></circle><path fill="#ffffff" d="M430.09086,882.12582a4.05725,4.05725,0,1,0-4.05718,4.05806A4.05694,4.05694,0,0,0,430.09086,882.12582Z" class="colorfff svgShape"></path><path fill="#2e5494" d="M643.77679,755.69586c-3.85145,83.87533,62.447,126.03676,160.89724,116.83789C793.02017,796.14318,728.651,720.7598,643.77679,755.69586Z" class="color362e94 svgShape"></path><path fill="none" stroke="#5280cc" stroke-linecap="round" stroke-linejoin="round" stroke-width="2" d="M643.77679,755.69586c29.7096,19.07736,95.42955,74.22475,140.52176,103.45563" class="colorStroke5652cc svgStroke"></path><path fill="#cedef8" d="M272.56417,238.33538c24.17835-39.46,3.399-77.45144-46.5727-99.21607C211.28556,179.09419,222.29467,232.61314,272.56417,238.33538Z" class="colorced3f8 svgShape"></path><path fill="#e9eef7" d="M272.22787,243.93361c-14.099-66.96379-75.02344-86.681-150.82134-59.306C146.21036,242.51655,212.40261,288.84283,272.22787,243.93361Z" class="colore9edf7 svgShape"></path><path fill="none" stroke="#dde7f8" stroke-linecap="round" stroke-linejoin="round" stroke-width="2" d="M272.22787,243.93361c-27.33865-8.98162-90.45959-39.06313-132.01113-52.91274" class="colorStrokedde2f8 svgStroke"></path><path fill="#cedef8" d="M803.00269,219.79948c33.73044,31.68585,75.148,19.04949,106.6031-25.46511C873.44734,171.82185,818.80857,171.73839,803.00269,219.79948Z" class="colorced3f8 svgShape"></path><path fill="#3e69af" d="M806.19713,213.02c43.06048,5.46925,67.54085-26.94543,66.88968-78.06132C833.238,137.792,791.71636,167.833,806.19713,213.02Z" class="color423eaf svgShape"></path><path fill="none" stroke="#2e5494" stroke-linecap="round" stroke-linejoin="round" stroke-width="2" d="M806.19713,213.02c11.064-14.51713,42.21132-46.09326,59.14854-68.11658" class="colorStroke362e94 svgStroke"></path><path fill="#7dacfb" d="M318.82771,407.06859c-3.79937-15.8123-26.22948-51.35109-61.1775-42.35958-15.81725,4.06873-19.74911,6.05931-22.88665,11.84269-2.04471,3.76449-1.86656,7.92862-5.51914,9.05209-6.67836,2.05332-13.86812-22.67071-38.7789-17.52-24.9121,5.15237-25.7407,23.52515-32.48442,24.83946-6.74533,1.31592-11.738-8.04753-22.11948-1.63209-10.3807,6.416-.50016,23.38389-12.73823,33.437-12.72816,10.45832-30.07786,32.36843-20.364,44.19256,9.71318,11.82414,19.15367,3.275,29.4582,5.6366,10.30454,2.36249,28.8724,26.186,47.67911,10.73554,18.68837-15.35343,23.416-23.7237,49.24568-9.03283,25.83042,14.68881,52.85347.93978,59.15073-12.419,6.29492-13.35876,10.33153-5.98079,9.39963,2.57406-.931,8.55411,11.01626,2.56894,16.15854-6.93691C318.99448,449.97164,323.59662,426.91531,318.82771,407.06859Z" class="color807dfb svgShape"></path><path fill="none" stroke="#6798e9" stroke-linecap="round" stroke-linejoin="round" stroke-width="2" d="M327.03706 407.45247c-77.87035-9.30071-153.60273 15.28731-200.94071 45.86112M166.558 431.92291c-3.13112-2.15005-15.04644-12.95606-19.06175-21.54082M155.541 436.932c-2.20491 5.52282-3.74946 19.6966-3.55074 23.758M214.80129 415.51153c-4.98761-2.85186-14.72079-9.11629-21.82723-24.66494M195.71051 421.00718c-3.13973 4.49475-6.85724 22.47067-7.72771 30.44554M253.84443 408.01537c-4.08855 6.94828-4.29092 16.8838-5.01695 23.55489M276.09989 405.94571c-7.11491-2.88527-17.57411-12.90763-23.3105-21.86006" class="colorStroke6b67e9 svgStroke"></path><circle cx="232.487" cy="647.977" r="64.606" fill="#5280cc" class="color5652cc svgShape"></circle><circle cx="232.487" cy="647.977" r="55.774" fill="#ffffff" transform="rotate(-88.839 232.487 647.977)" class="colorfff svgShape"></circle><path fill="none" stroke="#fcbd06" stroke-linecap="round" stroke-linejoin="round" stroke-width="2" d="M214.24,693.4226a48.967,48.967,0,0,1,18.24658-94.40353" class="colorStrokefcba06 svgStroke"></path><line x1="232.487" x2="232.487" y1="599.019" y2="604.369" fill="none" stroke="#fcbd06" stroke-linecap="round" stroke-linejoin="round" stroke-width="2" class="colorStrokefcba06 svgStroke"></line><line x1="223.985" x2="224.914" y1="599.763" y2="605.032" fill="none" stroke="#fcbd06" stroke-linecap="round" stroke-linejoin="round" stroke-width="2" class="colorStrokefcba06 svgStroke"></line><line x1="215.742" x2="217.572" y1="601.971" y2="607" fill="none" stroke="#fcbd06" stroke-linecap="round" stroke-linejoin="round" stroke-width="2" class="colorStrokefcba06 svgStroke"></line><line x1="208.008" x2="210.683" y1="605.578" y2="610.213" fill="none" stroke="#fcbd06" stroke-linecap="round" stroke-linejoin="round" stroke-width="2" class="colorStrokefcba06 svgStroke"></line><line x1="201.018" x2="204.456" y1="610.472" y2="614.573" fill="none" stroke="#fcbd06" stroke-linecap="round" stroke-linejoin="round" stroke-width="2" class="colorStrokefcba06 svgStroke"></line><line x1="194.984" x2="199.082" y1="616.506" y2="619.947" fill="none" stroke="#fcbd06" stroke-linecap="round" stroke-linejoin="round" stroke-width="2" class="colorStrokefcba06 svgStroke"></line><line x1="190.089" x2="194.722" y1="623.497" y2="626.174" fill="none" stroke="#fcbd06" stroke-linecap="round" stroke-linejoin="round" stroke-width="2" class="colorStrokefcba06 svgStroke"></line><line x1="186.482" x2="191.509" y1="631.231" y2="633.063" fill="none" stroke="#fcbd06" stroke-linecap="round" stroke-linejoin="round" stroke-width="2" class="colorStrokefcba06 svgStroke"></line><line x1="184.272" x2="189.542" y1="639.473" y2="640.405" fill="none" stroke="#fcbd06" stroke-linecap="round" stroke-linejoin="round" stroke-width="2" class="colorStrokefcba06 svgStroke"></line><line x1="183.529" x2="188.88" y1="647.976" y2="647.977" fill="none" stroke="#fcbd06" stroke-linecap="round" stroke-linejoin="round" stroke-width="2" class="colorStrokefcba06 svgStroke"></line><line x1="184.272" x2="189.542" y1="656.478" y2="655.549" fill="none" stroke="#fcbd06" stroke-linecap="round" stroke-linejoin="round" stroke-width="2" class="colorStrokefcba06 svgStroke"></line><line x1="186.481" x2="191.509" y1="664.72" y2="662.891" fill="none" stroke="#fcbd06" stroke-linecap="round" stroke-linejoin="round" stroke-width="2" class="colorStrokefcba06 svgStroke"></line><line x1="190.087" x2="194.722" y1="672.454" y2="669.78" fill="none" stroke="#fcbd06" stroke-linecap="round" stroke-linejoin="round" stroke-width="2" class="colorStrokefcba06 svgStroke"></line><line x1="194.982" x2="199.082" y1="679.445" y2="676.007" fill="none" stroke="#fcbd06" stroke-linecap="round" stroke-linejoin="round" stroke-width="2" class="colorStrokefcba06 svgStroke"></line><line x1="201.016" x2="204.456" y1="685.479" y2="681.381" fill="none" stroke="#fcbd06" stroke-linecap="round" stroke-linejoin="round" stroke-width="2" class="colorStrokefcba06 svgStroke"></line><line x1="208.006" x2="210.683" y1="690.373" y2="685.741" fill="none" stroke="#fcbd06" stroke-linecap="round" stroke-linejoin="round" stroke-width="2" class="colorStrokefcba06 svgStroke"></line><path fill="none" stroke="#fcbd06" stroke-linecap="round" stroke-linejoin="round" stroke-width="2" d="M250.73329,693.4226a48.96707,48.96707,0,0,0-18.24672-94.40353" class="colorStrokefcba06 svgStroke"></path><line x1="240.988" x2="240.059" y1="599.763" y2="605.032" fill="none" stroke="#fcbd06" stroke-linecap="round" stroke-linejoin="round" stroke-width="2" class="colorStrokefcba06 svgStroke"></line><line x1="249.231" x2="247.401" y1="601.971" y2="607" fill="none" stroke="#fcbd06" stroke-linecap="round" stroke-linejoin="round" stroke-width="2" class="colorStrokefcba06 svgStroke"></line><line x1="256.965" x2="254.29" y1="605.578" y2="610.213" fill="none" stroke="#fcbd06" stroke-linecap="round" stroke-linejoin="round" stroke-width="2" class="colorStrokefcba06 svgStroke"></line><line x1="263.955" x2="260.517" y1="610.472" y2="614.573" fill="none" stroke="#fcbd06" stroke-linecap="round" stroke-linejoin="round" stroke-width="2" class="colorStrokefcba06 svgStroke"></line><line x1="269.989" x2="265.892" y1="616.506" y2="619.947" fill="none" stroke="#fcbd06" stroke-linecap="round" stroke-linejoin="round" stroke-width="2" class="colorStrokefcba06 svgStroke"></line><line x1="274.885" x2="270.252" y1="623.497" y2="626.174" fill="none" stroke="#fcbd06" stroke-linecap="round" stroke-linejoin="round" stroke-width="2" class="colorStrokefcba06 svgStroke"></line><line x1="278.492" x2="273.464" y1="631.231" y2="633.063" fill="none" stroke="#fcbd06" stroke-linecap="round" stroke-linejoin="round" stroke-width="2" class="colorStrokefcba06 svgStroke"></line><line x1="280.701" x2="275.431" y1="639.473" y2="640.405" fill="none" stroke="#fcbd06" stroke-linecap="round" stroke-linejoin="round" stroke-width="2" class="colorStrokefcba06 svgStroke"></line><line x1="281.445" x2="276.093" y1="647.976" y2="647.977" fill="none" stroke="#fcbd06" stroke-linecap="round" stroke-linejoin="round" stroke-width="2" class="colorStrokefcba06 svgStroke"></line><line x1="280.701" x2="275.431" y1="656.478" y2="655.549" fill="none" stroke="#fcbd06" stroke-linecap="round" stroke-linejoin="round" stroke-width="2" class="colorStrokefcba06 svgStroke"></line><line x1="278.492" x2="273.464" y1="664.72" y2="662.891" fill="none" stroke="#fcbd06" stroke-linecap="round" stroke-linejoin="round" stroke-width="2" class="colorStrokefcba06 svgStroke"></line><line x1="274.886" x2="270.252" y1="672.454" y2="669.78" fill="none" stroke="#fcbd06" stroke-linecap="round" stroke-linejoin="round" stroke-width="2" class="colorStrokefcba06 svgStroke"></line><line x1="269.992" x2="265.892" y1="679.445" y2="676.007" fill="none" stroke="#fcbd06" stroke-linecap="round" stroke-linejoin="round" stroke-width="2" class="colorStrokefcba06 svgStroke"></line><line x1="263.957" x2="260.517" y1="685.479" y2="681.381" fill="none" stroke="#fcbd06" stroke-linecap="round" stroke-linejoin="round" stroke-width="2" class="colorStrokefcba06 svgStroke"></line><line x1="256.967" x2="254.29" y1="690.373" y2="685.741" fill="none" stroke="#fcbd06" stroke-linecap="round" stroke-linejoin="round" stroke-width="2" class="colorStrokefcba06 svgStroke"></line><polygon fill="#2e5494" points="241.227 642.751 263.711 629.303 241.923 651.778 241.227 642.751" class="color362e94 svgShape"></polygon><path fill="#5280cc" d="M227.26026,639.23688a10.18385,10.18385,0,1,1-3.51222,13.96646A10.18323,10.18323,0,0,1,227.26026,639.23688Z" class="color5652cc svgShape"></path><path fill="#ffffff" d="M230.14844,644.06575a4.55716,4.55716,0,1,1-1.57168,6.2494A4.55823,4.55823,0,0,1,230.14844,644.06575Z" class="colorfff svgShape"></path><polygon fill="#5280cc" points="241.227 642.751 263.711 629.303 233.602 637.866 241.227 642.751" class="color5652cc svgShape"></polygon><circle cx="861.618" cy="518.884" r="18.948" fill="#3e69af" transform="rotate(-67.5 861.618 518.884)" class="color423eaf svgShape"></circle><path fill="#4285f4" d="M902.71808,477.14a58.582,58.582,0,1,1-90.23449,9.83852l-22.762-14.78a85.73067,85.73067,0,1,0,132.03549-14.396Z" class="color6b67e9 svgShape"></path><path fill="#fbbc05" d="M847.99378,454.80037a58.52529,58.52529,0,0,1,53.28375,15.5609L932.07,439.08713A102.46777,102.46777,0,0,0,774.22922,456.295l36.81242,23.9048A58.40767,58.40767,0,0,1,847.99378,454.80037Z" class="colorfcba06 svgShape"></path><path fill="#cedef8" d="M260.614,464.69243a7.30063,7.30063,0,0,0-7.28679,6.60555q-.58347,6.43551-.59135,13.02464,0,6.58718.59135,13.02318a7.30063,7.30063,0,0,0,7.28679,6.60556h11.25335a7.33036,7.33036,0,0,1,7.14861,5.822q1.21818,5.64652,2.95793,11.08527a7.32973,7.32973,0,0,1-3.28286,8.60752l-9.75447,5.63251a7.30447,7.30447,0,0,0-3.0036,9.37118,143.2488,143.2488,0,0,0,13.04025,22.547,7.303,7.303,0,0,0,9.60917,2.07171l9.75169-5.6296a7.32749,7.32749,0,0,1,9.09339,1.46051q3.86412,4.2489,8.11886,8.11727a7.33169,7.33169,0,0,1,1.46037,9.09484l-5.62959,9.75039a7.30355,7.30355,0,0,0,2.07185,9.61061,143.309,143.309,0,0,0,22.54682,13.04025,7.30563,7.30563,0,0,0,9.37119-3.005l5.63105-9.75448a7.33094,7.33094,0,0,1,8.60752-3.28154q5.4351,1.73553,11.08541,2.95807a7.32876,7.32876,0,0,1,5.8219,7.147v11.255a7.30073,7.30073,0,0,0,6.60572,7.28664q6.43525.58347,13.02448.59135,6.585,0,13.02318-.59135a7.30073,7.30073,0,0,0,6.6057-7.28664v-11.255a7.32876,7.32876,0,0,1,5.8219-7.147q5.64674-1.21837,11.08527-2.95807a7.33112,7.33112,0,0,1,8.60766,3.28154l5.63091,9.75448a7.30759,7.30759,0,0,0,9.37278,3.005,143.37524,143.37524,0,0,0,22.54684-13.04025,7.30487,7.30487,0,0,0,2.0717-9.61061l-5.62958-9.75039a7.3281,7.3281,0,0,1,1.46051-9.09484q4.24887-3.86194,8.11741-8.11727a7.32977,7.32977,0,0,1,9.09483-1.46051l9.75025,5.6296a7.303,7.303,0,0,0,9.60915-2.07171,143.25724,143.25724,0,0,0,13.04171-22.547,7.3052,7.3052,0,0,0-3.00506-9.37118l-9.75447-5.63251a7.33152,7.33152,0,0,1-3.28286-8.60752q1.73751-5.4351,2.95939-11.08527a7.32873,7.32873,0,0,1,7.147-5.822h11.255a7.29933,7.29933,0,0,0,7.28533-6.60556q.58543-6.4333.59266-13.02318,0-6.58716-.59266-13.02464a7.29933,7.29933,0,0,0-7.28533-6.60555h-11.255a7.32876,7.32876,0,0,1-7.147-5.8219q-1.22035-5.64454-2.95939-11.08542a7.33151,7.33151,0,0,1,3.28286-8.60751l9.75447-5.63106a7.30567,7.30567,0,0,0,3.00506-9.37118,143.19809,143.19809,0,0,0-13.04171-22.547,7.303,7.303,0,0,0-9.60915-2.0717l-9.75025,5.62959a7.33147,7.33147,0,0,1-9.09483-1.46051q-3.86219-4.25087-8.11741-8.11727a7.32811,7.32811,0,0,1-1.46051-9.09484l5.62958-9.7517a7.30322,7.30322,0,0,0-2.0717-9.6093,143.37055,143.37055,0,0,0-22.54684-13.04025,7.30774,7.30774,0,0,0-9.37278,3.00506l-5.63091,9.75316a7.33,7.33,0,0,1-8.60766,3.28286q-5.4351-1.73555-11.08527-2.95808a7.33011,7.33011,0,0,1-5.8219-7.14846v-11.2535a7.30071,7.30071,0,0,0-6.6057-7.28664q-6.43309-.58348-13.02318-.59136-6.58693,0-13.02448.59136a7.30071,7.30071,0,0,0-6.60572,7.28664v11.2535a7.33011,7.33011,0,0,1-5.8219,7.14846q-5.64454,1.21837-11.08541,2.95808a7.32981,7.32981,0,0,1-8.60752-3.28286l-5.63105-9.75316a7.30579,7.30579,0,0,0-9.37119-3.00506,143.30433,143.30433,0,0,0-22.54682,13.04025,7.30189,7.30189,0,0,0-2.07185,9.6093l5.62959,9.7517a7.3317,7.3317,0,0,1-1.46037,9.09484q-4.25108,3.862-8.11886,8.11727a7.32919,7.32919,0,0,1-9.09339,1.46051l-9.75169-5.62959a7.303,7.303,0,0,0-9.60917,2.0717,143.18965,143.18965,0,0,0-13.04025,22.547,7.30494,7.30494,0,0,0,3.0036,9.37118l9.75447,5.63106a7.32971,7.32971,0,0,1,3.28286,8.60751q-1.73553,5.4351-2.95793,11.08542a7.33039,7.33039,0,0,1-7.14861,5.8219Zm135.529-36.08156A55.71175,55.71175,0,1,1,340.43,484.32262,55.71142,55.71142,0,0,1,396.143,428.61087Z" class="colorced3f8 svgShape"></path><path fill="#bbcbe6" d="M396.143,592.30788A107.98526,107.98526,0,1,0,288.15777,484.32262,107.98535,107.98535,0,0,0,396.143,592.30788Zm0-163.697A55.71175,55.71175,0,1,1,340.43,484.32262,55.71142,55.71142,0,0,1,396.143,428.61087Z" class="colorbbc0e6 svgShape"></path><path fill="#cedef8" d="M396.143 548.28851a63.96589 63.96589 0 10-63.96589-63.96589A63.9672 63.9672 0 00396.143 548.28851zm0-119.67764A55.71175 55.71175 0 11340.43 484.32262 55.71142 55.71142 0 01396.143 428.61087zM602.40051 654.75779A5.80636 5.80636 0 00596.607 660.007q-.46179 5.11865-.47023 10.35429 0 5.23857.47023 10.35442a5.80521 5.80521 0 005.79347 5.24924h8.948a5.82769 5.82769 0 015.68095 4.63073q.9702 4.48614 2.35243 8.81265a5.8283 5.8283 0 01-2.61039 6.8422l-7.75266 4.47828a5.80254 5.80254 0 00-2.38948 7.44771 113.91478 113.91478 0 0010.36727 17.92324 5.80695 5.80695 0 007.64 1.64714l7.7512-4.47549a5.82361 5.82361 0 017.22974 1.16271q3.07122 3.377 6.45177 6.45177a5.825 5.825 0 011.16125 7.23251l-4.47548 7.74843a5.80719 5.80719 0 001.64858 7.64 113.76677 113.76677 0 0017.92456 10.36727 5.80347 5.80347 0 007.44918-2.3895l4.47828-7.75264a5.82594 5.82594 0 016.84073-2.60893q4.31937 1.38078 8.81266 2.35243a5.82586 5.82586 0 014.62941 5.67949v8.94806a5.80646 5.80646 0 005.25056 5.79345q5.11663.46156 10.35295.47025 5.23857 0 10.35444-.47025a5.80772 5.80772 0 005.252-5.79345V769.155a5.82436 5.82436 0 014.62939-5.67949q4.48614-.97041 8.80991-2.35243a5.82638 5.82638 0 016.842 2.60893l4.47695 7.75264a5.80551 5.80551 0 007.45049 2.3895A113.70244 113.70244 0 00775.882 763.50688a5.80736 5.80736 0 001.64858-7.64l-4.47695-7.74843a5.827 5.827 0 011.16272-7.23251q3.37674-3.06926 6.45162-6.45177a5.82537 5.82537 0 017.23119-1.16271l7.7512 4.47549a5.80757 5.80757 0 007.64-1.64714 114.00889 114.00889 0 0010.36584-17.92324 5.80256 5.80256 0 00-2.38951-7.44771l-7.75251-4.47828a5.828 5.828 0 01-2.61038-6.8422q1.38054-4.32155 2.351-8.81265a5.83155 5.83155 0 015.68227-4.63073h8.9482a5.80286 5.80286 0 005.792-5.24924q.46375-5.11665.47157-10.35442 0-5.23419-.47157-10.35429a5.804 5.804 0 00-5.792-5.24924h-8.9482a5.82838 5.82838 0 01-5.68227-4.63217c-.64679-2.9893-1.4306-5.93162-2.351-8.807a5.8289 5.8289 0 012.61038-6.845l7.75251-4.47549a5.811 5.811 0 002.38951-7.4534 113.99589 113.99589 0 00-10.36584-17.9218 5.80455 5.80455 0 00-7.64-1.64712l-7.7512 4.47549a5.829 5.829 0 01-7.23119-1.16272q-3.07122-3.377-6.45162-6.45177a5.82493 5.82493 0 01-1.16272-7.231l4.47695-7.75119a5.806 5.806 0 00-1.64858-7.63871 113.70332 113.70332 0 00-17.92471-10.36729 5.80776 5.80776 0 00-7.45049 2.388l-4.47695 7.75412a5.8255 5.8255 0 01-6.842 2.61038q-4.31744-1.38076-8.80991-2.35244a5.82752 5.82752 0 01-4.62939-5.6824v-8.94659a5.80771 5.80771 0 00-5.252-5.79345q-5.11667-.46159-10.35444-.47025-5.23615 0-10.35295.47025a5.80645 5.80645 0 00-5.25056 5.79345v8.94659a5.829 5.829 0 01-4.62941 5.6824q-4.48812.968-8.81266 2.35244a5.82506 5.82506 0 01-6.84073-2.61038l-4.47828-7.75412a5.80573 5.80573 0 00-7.44918-2.388 113.76765 113.76765 0 00-17.92456 10.36729 5.80583 5.80583 0 00-1.64858 7.63871l4.47548 7.75119a5.82292 5.82292 0 01-1.16125 7.231q-3.377 3.069-6.45177 6.45177a5.82719 5.82719 0 01-7.22974 1.16272l-7.7512-4.47549a5.80392 5.80392 0 00-7.64 1.64712 113.90179 113.90179 0 00-10.36727 17.9218 5.811 5.811 0 002.38948 7.4534l7.75266 4.47549a5.82924 5.82924 0 012.61039 6.845c-.92052 2.87535-1.70563 5.81767-2.35243 8.807a5.82453 5.82453 0 01-5.68095 4.63217zM710.14208 626.0713a44.2901 44.2901 0 11-44.28871 44.29A44.29265 44.29265 0 01710.14208 626.0713z" class="colorced3f8 svgShape"></path><path fill="#bbcbe6" d="M710.14208,754.40065a84.03853,84.03853,0,1,0-84.03919-84.03933A84.038,84.038,0,0,0,710.14208,754.40065Zm0-128.32935a44.2901,44.2901,0,1,1-44.28871,44.29A44.29265,44.29265,0,0,1,710.14208,626.0713Z" class="colorbbc0e6 svgShape"></path><path fill="#cedef8" d="M710.14208,714.65a44.28937,44.28937,0,1,0-44.29-44.28871A44.28926,44.28926,0,0,0,710.14208,714.65Zm0-78.16025a33.87161,33.87161,0,1,1-33.87153,33.87154A33.87359,33.87359,0,0,1,710.14208,636.48978Z" class="colorced3f8 svgShape"></path><path fill="none" stroke="#a3b4d0" stroke-dasharray="7.96 7.96" stroke-linecap="round" stroke-linejoin="round" stroke-width="2" d="M183.20091,697.264a69.70351,69.70351,0,0,0,98.57278,0l163.655-163.65572A69.70092,69.70092,0,1,0,346.856,435.037L183.20091,598.69122A69.70377,69.70377,0,0,0,183.20091,697.264Z" class="colorStrokea3a9d0 svgStroke"></path><path fill="none" stroke="#a3b4d0" stroke-dasharray="8" stroke-linecap="round" stroke-linejoin="round" stroke-width="2" d="M674.01077,635.01075a50.54491,50.54491,0,0,0,71.47912,71.48347L897.3578,554.62414a50.54362,50.54362,0,0,0-71.47909-71.47985C824.33837,484.68517,675.54963,633.47057,674.01077,635.01075Z" class="colorStrokea3a9d0 svgStroke"></path><path fill="#e9eef7" d="M655.898,233.58983H510.44977C520.527,252.35874,523.0304,270.6809,523.64816,285H655.898a7.31669,7.31669,0,0,0,7.29525-7.29525V240.88507A7.31669,7.31669,0,0,0,655.898,233.58983Z" class="colore9edf7 svgShape"></path><path fill="#e9eef7" d="M313.9911,225.03367a9.75225,9.75225,0,0,0-9.724,9.7231v49.07629a9.75225,9.75225,0,0,0,9.724,9.72311H523.12453c-.82365-19.0851-4.16065-43.50637-17.59265-68.5225Z" class="colore9edf7 svgShape"></path><path fill="#7dacfb" d="M313.9911,225.03367a9.75225,9.75225,0,0,0-9.724,9.7231v49.07629a9.75225,9.75225,0,0,0,9.724,9.72311h58.79867v-68.5225Z" class="color807dfb svgShape"></path><circle cx="334.601" cy="255.367" r="13.627" fill="none" stroke="#ffffff" stroke-width="2" transform="rotate(-75.571 334.6 255.367)" class="colorStrokefff svgStroke"></circle><line x1="344.237" x2="356.083" y1="265.004" y2="276.85" fill="none" stroke="#ffffff" stroke-linecap="round" stroke-width="2" class="colorStrokefff svgStroke"></line><text fill="#ced3f8" font-family="ArialMT,Arial" font-size="25.094" transform="translate(381.476 269.12)">SEARCH...</text><path fill="#d0dff8" d="M458.049,469.69361c-4.64343-5.15526-17.041-9.09-17.041-9.09a84.735,84.735,0,0,0,3.63376,17.94063l13.44806-8.80536Z" class="colorf8d8d0 svgShape"></path><path fill="#edb000" d="M458.08987 469.73884l-13.44806 8.80536c7.90893 26.40354 27.18 61.0011 45.02422 53.88853C511.03906 523.91334 475.23793 488.77126 458.08987 469.73884zM497.74508 487.81821L510.51176 512.885 546.881 472.94525l-11.13853-36.0775C520.00946 449.6559 497.74508 487.81821 497.74508 487.81821z" class="colored9f00 svgShape"></path><path fill="#2e5493" d="M564.06528,425.12841c9.87762-6.065,2.01276-29.41983.54423-37.13091-1.96517-10.333-.19989-62.39726-.19989-62.39726-24.35547,15.42726-48.87215,60.70885-33.7481,85.5159a23.88488,23.88488,0,1,0,33.40376,14.01227Z" class="color362e93 svgShape"></path><path fill="#34a853" d="M530.34228,978.05788c2.35184,0,5.27317,2.60483,5.64523,5.36711h4.28258a23.42954,23.42954,0,0,0,1.98766-16.235c-1.39835-5.7539-2.87491-4.37539-4.37131-2.87637-3.40717,2.76768-17.30783,3.68-18.39876-.99054-3.58882.539-40.53238,11.16741-40.53238,14.58246,0,5.53665,4.34227,5.51944,7.29655,5.51944C521.19712,983.425,516.57163,981.27975,530.34228,978.05788Z" class="color20196f svgShape"></path><path fill="#f7ebc9" d="M523.2656,957.45275c1.19715-5.26644,16.42452-9.21667,15.64057,0a12.44364,12.44364,0,0,0,.79591,5.87034h-.012c-3.059,4.382-35.22072,12.60414-40.46732,5.77506C502.88706,967.13967,523.2656,963.03843,523.2656,957.45275Z" class="colorf7d3c9 svgShape"></path><path fill="#34a853" d="M648.39,978.05788c2.35053,0,5.27038,2.60483,5.64521,5.36711h4.2826a23.43887,23.43887,0,0,0,1.98767-16.235c-1.39836-5.7539-2.87492-4.37539-4.37132-2.87637-3.40717,2.76768-17.30782,3.68-18.3989-.99054-3.59.539-40.53224,11.16741-40.53224,14.58246,0,5.53665,4.34228,5.51944,7.29656,5.51944C639.24484,983.425,634.61924,981.27975,648.39,978.05788Z" class="color20196f svgShape"></path><path fill="#f7ebc9" d="M641.31335,957.45275c1.19713-5.26644,16.42452-9.21667,15.63924,0a12.47657,12.47657,0,0,0,.79722,5.87034h-.01194c-3.05906,4.382-35.22088,12.60414-40.46879,5.77506C620.936,967.13967,641.31335,963.03843,641.31335,957.45275Z" class="colorf7d3c9 svgShape"></path><path fill="#3e69af" d="M535.06858,570.10713c-35.03411,61.03407-12.35113,292.794-12.35113,387.0239h16.71981c16.10134-77.54059,42.19133-308.559,67.59688-387.0239Z" class="color423eaf svgShape"></path><path fill="#5280cc" d="M620.49766,570.10713c43.39125,63.8096,36.905,292.42571,36.905,386.65432H640.68288c-9.39263-23.35938-79.40511-342.21037-85.75343-386.65432Z" class="color5652cc svgShape"></path><path fill="#fbbc05" d="M620.49766,570.10713H535.06858c7.06865-34.94073,6.16871-56.07972.259-71.544-7.12527-18.645-19.83811-28.83548-12.37974-42.32177,14.20238-25.68087,25.47689-31.195,40.32958-50.35543,13.44893,2.31884,23.52775,13.44309,49.3093.59456,9.51329-4.74133,23.96342,8.47518,23.96342,34.47264C637.979,479.70544,609.95019,507.09065,620.49766,570.10713Z" class="colorfcba06 svgShape"></path><path fill="#7dacfb" d="M645.70026,346.17532c16.01394-6.86921,21.749-20.18026,24.93077-29.31639-20.2729-6.46665-33.75481-15.3171-32.64768-27.53386,3.20728-35.37978,92.93168-80.7235,120.88018-91.24824,20.55071-7.73906,63.65526-14.43522,77.53055,26.48513,13.87232,40.92108,6.12827,111.7925-47.43912,109.03256-26.97239-1.38843-54.68575-3.15169-90.01354-9.82643C685.33124,343.92327,657.14475,350.74914,645.70026,346.17532Z" class="color807dfb svgShape"></path><g style="mix-blend-mode:screen" fill="#ea4335" class="color000 svgShape"><polyline fill="none" stroke="#9f9cff" stroke-linecap="round" stroke-linejoin="round" stroke-width="3" points="715.205 251.029 710.38 268.916 729.888 262.33 715.205 251.029 744.108 241.269 729.888 262.33"></polyline><line x1="710.38" x2="765.314" y1="268.916" y2="304.071" fill="none" stroke="#9cc1ff" stroke-linecap="round" stroke-linejoin="round" stroke-width="3" class="colorStroke9f9cff svgStroke"></line><polyline fill="none" stroke="#9f9cff" stroke-linecap="round" stroke-linejoin="round" stroke-width="3" points="773.012 231.509 787.693 242.811 768.186 249.397 773.012 231.509 744.108 241.269 768.186 249.397"></polyline><polyline fill="none" stroke="#9f9cff" stroke-linecap="round" stroke-linejoin="round" stroke-width="3" points="765.314 304.071 768.186 249.397 749.036 255.863 729.888 262.33 765.314 304.071"></polyline><line x1="787.693" x2="765.314" y1="242.811" y2="304.071" fill="none" stroke="#9cc1ff" stroke-linecap="round" stroke-linejoin="round" stroke-width="3" class="colorStroke9f9cff svgStroke"></line></g><rect width="23.265" height="27.141" x="443.225" y="403.785" fill="#196f30" transform="rotate(64.106 454.857 417.355)" class="color1f196f svgShape"></rect><path fill="#2e5493" d="M558.91966,572.16483,483.33551,416.46122l-23.39819,11.35884L546.881,606.92274A26.01024,26.01024,0,0,0,558.91966,572.16483Z" class="color362e93 svgShape"></path><path fill="#196f30" d="M436.53767,439.17833l75.58342,155.70433a26.01344,26.01344,0,0,0,34.76,12.04008L459.93732,427.82006Z" class="color1f196f svgShape"></path><path fill="#2e5493" d="M436.98356,159.70562a136.38114,136.38114,0,1,0,84.22669,173.51A136.38239,136.38239,0,0,0,436.98356,159.70562ZM394.06141,412.72737A124.16539,124.16539,0,1,1,516.49607,286.85519,124.16573,124.16573,0,0,1,394.06141,412.72737Z" class="color362e93 svgShape"></path><path d="M469.87782,191.59168A124.16746,124.16746,0,0,1,297.54251,368.7649,124.16692,124.16692,0,1,0,469.87782,191.59168Z" style="mix-blend-mode:multiply" fill="#e9eef7" class="colore9edf7 svgShape"></path><path fill="#d0dff8" d="M496.27815,562.24636s3.31921,7.39519,6.72242,13.84812c0,0,2.49731-.56085,6.7732-1.69966l-7.26884-15.04134A68.52286,68.52286,0,0,1,496.27815,562.24636Z" class="colorf8d8d0 svgShape"></path><path fill="#ffce3e" d="M617.23321,426.35212c-13.13145-2.10016-19.42406,7.76112-21.0964,15.81052-3.61115,21.3341-11.68759,65.34121-21.308,72.43642-16.718,12.32984-55.05622,35.93857-72.32393,44.75442l7.26884,15.04134c16.77761-4.46876,60.93765-17.83788,89.05278-41.15305,11.3434-9.40678,27.53518-60.83958,31.868-84.76C632.63987,440.33345,629.73257,428.35116,617.23321,426.35212Z" class="colorffd03e svgShape"></path><path fill="#d0dff8" d="M503.00057 576.09448c-7.82809 3.69753-18.94342 2.59609-21.20611-12.89551-1.355-9.278 8.11173-14.07968 8.11173-14.07968 2.13867 4.80669 2.17223 4.24671 6.372 13.12707zM440.5438 455.6809c-.10478-7.68206 8.64135-20.74578 10.94373-19.35575 3.31423 2.00094-2.743 12.61478-2.743 12.61478 1.66784-1.459 7.1422-8.47954 8.54771-4.07584 1.45656 4.56347-7.23688 10.95571-7.23688 10.95571 1.91294-.89193 7.28866-6.16039 7.76621-1.38493.26832 2.683-8.56053 10.954-8.56053 10.954C445.211 464.94149 440.74134 470.16051 440.5438 455.6809z" class="colorf8d8d0 svgShape"></path><path fill="#f7ebc9" d="M589.76337,409.15678l.01853.00655c-1.59561-11.9763,2.524-22.09407,6.50474-28.6239,0,0,11.16595-15.70348,10.88261-31.70558-.36156-20.42362-32.69146-25.53394-41.96649-20.83683-11.93794,7.0218-13.7931,17.66209-16.394,31.76321,0,0-5.72852,13.11977-5.84379,13.99973-.16545,1.28527,3.85481,1.1792,4.03092,1.80893.17742.62972-1.17583,8.583,1.21042,12.00286,2.39022,3.41856,10.3025,2.62863,12.65828,4.178,3.66294,2.40872,7.86471,6.34366,1.73875,15.62934C554.36786,424.412,572.66229,422.92889,589.76337,409.15678Z" class="colorf7d3c9 svgShape"></path><path fill="#5280cc" d="M661.1993,443.79082a21.84532,21.84532,0,0,0-10.1395-33.88192c-.15643-.05761-.68212-.25356-.788-.28653l-.00919-.00278c-11.81495-3.67213-33.10072-19.48939-34.6924-41.95642-1.8368-25.92322-7.80241-39.83233-23.9395-44.4155-16.251-4.61628-29.50679.5575-32.78542,9.25037-4.31586,24.4382,3.19664,31.23621,13.00524,32.98021,8.81951,1.56585,12.38032,8.60343,9.63775,15.33592-2.40612,5.91134.05836,17.49575,2.65374,24.456-8.24978,6.76809-16.243,27.64475-5.53916,40.64152a25.25013,25.25013,0,0,0,29.01526,7.76783,30.21507,30.21507,0,1,0,59.241,10.81579A30.05067,30.05067,0,0,0,661.1993,443.79082Z" class="color5652cc svgShape"></path><path fill="#7dacfb" d="M985.13759,791.29721l-17.66629,3.58606a2.50382,2.50382,0,0,0-1.87592,1.65809L959.86719,813.632a2.50438,2.50438,0,0,0,.49826,2.45463l11.9386,13.50448a2.503,2.503,0,0,0,2.37307.79521L992.342,826.802a2.5035,2.5035,0,0,0,1.8759-1.658l5.72786-17.09146a2.50422,2.50422,0,0,0-.49806-2.45417l-11.937-13.50586A2.50273,2.50273,0,0,0,985.13759,791.29721Z" class="color807dfb svgShape"></path><path fill="#ffce3e" d="M679.51066,99.90736l7.02167,25.00752a3.6527,3.6527,0,0,0,6.13253,1.56454l18.14693-18.58362a3.6533,3.6533,0,0,0-1.70986-6.09343l-25.17137-6.4239A3.65346,3.65346,0,0,0,679.51066,99.90736Z" class="colorffd03e svgShape"></path><path fill="#fbbc05" d="M130.2542,728.97979l-17.74379,18.96764a3.65312,3.65312,0,0,0,1.84088,6.05564l25.299,5.88186a3.65439,3.65439,0,0,0,4.32579-4.62226l-7.55744-24.84951A3.65112,3.65112,0,0,0,130.2542,728.97979Z" class="colorfcba06 svgShape"></path></g></svg></g></svg>